Interstate-Extra_Light_Italic.ufo
<glyph name="exclam" format="1">
  <advance width="244"/>
  <unicode hex="0021"/>
  <outline>
    <contour>
      <point x="213" y="700" type="line"/>
      <point x="155" y="371" type="line"/>
      <point x="109" y="163" type="line"/>
      <point x="83" y="163" type="line"/>
      <point x="110" y="371" type="line"/>
      <point x="168" y="700" type="line"/>
    </contour>
    <contour>
      <point x="114" y="33" type="curve" smooth="yes"/>
      <point x="114" y="11"/>
      <point x="95" y="-6"/>
      <point x="75" y="-6" type="curve" smooth="yes"/>
      <point x="53" y="-6"/>
      <point x="35" y="11"/>
      <point x="35" y="33" type="curve" smooth="yes"/>
      <point x="35" y="54"/>
      <point x="53" y="74"/>
      <point x="75" y="74" type="curve" smooth="yes"/>
      <point x="95" y="74"/>
      <point x="114" y="54"/>
    </contour>
  </outline>
</glyph>
<glyph name="quotedbl" format="1">
  <advance width="441"/>
  <unicode hex="0022"/>
  <outline>
    <contour>
      <point x="412" y="700" type="line"/>
      <point x="354" y="428" type="line"/>
      <point x="319" y="428" type="line"/>
      <point x="357" y="700" type="line"/>
    </contour>
    <contour>
      <point x="215" y="700" type="line"/>
      <point x="157" y="428" type="line"/>
      <point x="122" y="428" type="line"/>
      <point x="160" y="700" type="line"/>
    </contour>
  </outline>
</glyph>
<glyph name="numbersign" format="1">
  <advance width="658"/>
  <unicode hex="0023"/>
  <outline>
    <contour>
      <point x="638" y="505" type="line"/>
      <point x="630" y="464" type="line"/>
      <point x="503" y="464" type="line"/>
      <point x="463" y="236" type="line"/>
      <point x="590" y="236" type="line"/>
      <point x="582" y="194" type="line"/>
      <point x="456" y="194" type="line"/>
      <point x="421" y="0" type="line"/>
      <point x="377" y="0" type="line"/>
      <point x="411" y="194" type="line"/>
      <point x="205" y="194" type="line"/>
      <point x="171" y="0" type="line"/>
      <point x="127" y="0" type="line"/>
      <point x="160" y="194" type="line"/>
      <point x="34" y="194" type="line"/>
      <point x="42" y="236" type="line"/>
      <point x="168" y="236" type="line"/>
      <point x="208" y="464" type="line"/>
      <point x="81" y="464" type="line"/>
      <point x="89" y="505" type="line"/>
      <point x="216" y="505" type="line"/>
      <point x="250" y="700" type="line"/>
      <point x="294" y="700" type="line"/>
      <point x="260" y="505" type="line"/>
      <point x="467" y="505" type="line"/>
      <point x="501" y="700" type="line"/>
      <point x="545" y="700" type="line"/>
      <point x="511" y="505" type="line"/>
    </contour>
    <contour>
      <point x="459" y="464" type="line"/>
      <point x="252" y="464" type="line"/>
      <point x="212" y="236" type="line"/>
      <point x="419" y="236" type="line"/>
    </contour>
  </outline>
</glyph>
<glyph name="dollar" format="1">
  <advance width="564"/>
  <unicode hex="0024"/>
  <outline>
    <contour>
      <point x="363" y="702" type="line"/>
      <point x="444" y="692"/>
      <point x="493" y="660"/>
      <point x="529" y="624" type="curve"/>
      <point x="499" y="592" type="line"/>
      <point x="462" y="628"/>
      <point x="408" y="663"/>
      <point x="312" y="663" type="curve" smooth="yes"/>
      <point x="213" y="663"/>
      <point x="158" y="606"/>
      <point x="158" y="532" type="curve" smooth="yes"/>
      <point x="158" y="472"/>
      <point x="185" y="439"/>
      <point x="302" y="384" type="curve" smooth="yes"/>
      <point x="433" y="322"/>
      <point x="475" y="277"/>
      <point x="475" y="188" type="curve" smooth="yes"/>
      <point x="475" y="64"/>
      <point x="379" y="-6"/>
      <point x="257" y="-6" type="curve" smooth="yes"/>
      <point x="252" y="-6"/>
      <point x="248" y="-6"/>
      <point x="243" y="-6" type="curve"/>
      <point x="227" y="-100" type="line"/>
      <point x="182" y="-100" type="line"/>
      <point x="199" y="-2" type="line"/>
      <point x="97" y="14"/>
      <point x="44" y="66"/>
      <point x="21" y="92" type="curve"/>
      <point x="52" y="125" type="line"/>
      <point x="74" y="100"/>
      <point x="137" y="36"/>
      <point x="257" y="36" type="curve" smooth="yes"/>
      <point x="356" y="36"/>
      <point x="429" y="91"/>
      <point x="429" y="186" type="curve" smooth="yes"/>
      <point x="429" y="259"/>
      <point x="389" y="292"/>
      <point x="282" y="342" type="curve" smooth="yes"/>
      <point x="139" y="408"/>
      <point x="112" y="456"/>
      <point x="112" y="530" type="curve" smooth="yes"/>
      <point x="112" y="629"/>
      <point x="188" y="705"/>
      <point x="312" y="705" type="curve" smooth="yes"/>
      <point x="315" y="705"/>
      <point x="317" y="705"/>
      <point x="320" y="705" type="curve"/>
      <point x="336" y="800" type="line"/>
      <point x="381" y="800" type="line"/>
    </contour>
  </outline>
</glyph>
<glyph name="percent" format="1">
  <advance width="908"/>
  <unicode hex="0025"/>
  <outline>
    <contour>
      <point x="90" y="448" type="curve" smooth="yes"/>
      <point x="90" y="582"/>
      <point x="160" y="710"/>
      <point x="277" y="710" type="curve" smooth="yes"/>
      <point x="355" y="710"/>
      <point x="407" y="657"/>
      <point x="407" y="556" type="curve" smooth="yes"/>
      <point x="407" y="421"/>
      <point x="336" y="294"/>
      <point x="220" y="294" type="curve" smooth="yes"/>
      <point x="139" y="294"/>
      <point x="90" y="349"/>
    </contour>
    <contour>
      <point x="762" y="700" type="line"/>
      <point x="201" y="0" type="line"/>
      <point x="159" y="0" type="line"/>
      <point x="720" y="700" type="line"/>
    </contour>
    <contour>
      <point x="514" y="144" type="curve" smooth="yes"/>
      <point x="514" y="278"/>
      <point x="584" y="406"/>
      <point x="701" y="406" type="curve" smooth="yes"/>
      <point x="779" y="406"/>
      <point x="831" y="353"/>
      <point x="831" y="252" type="curve" smooth="yes"/>
      <point x="831" y="117"/>
      <point x="760" y="-10"/>
      <point x="644" y="-10" type="curve" smooth="yes"/>
      <point x="563" y="-10"/>
      <point x="514" y="45"/>
    </contour>
    <contour>
      <point x="367" y="556" type="curve" smooth="yes"/>
      <point x="367" y="629"/>
      <point x="333" y="675"/>
      <point x="277" y="675" type="curve" smooth="yes"/>
      <point x="180" y="675"/>
      <point x="130" y="558"/>
      <point x="130" y="448" type="curve" smooth="yes"/>
      <point x="130" y="377"/>
      <point x="161" y="329"/>
      <point x="220" y="329" type="curve" smooth="yes"/>
      <point x="316" y="329"/>
      <point x="367" y="445"/>
    </contour>
    <contour>
      <point x="791" y="252" type="curve" smooth="yes"/>
      <point x="791" y="325"/>
      <point x="757" y="371"/>
      <point x="701" y="371" type="curve" smooth="yes"/>
      <point x="604" y="371"/>
      <point x="554" y="254"/>
      <point x="554" y="144" type="curve" smooth="yes"/>
      <point x="554" y="73"/>
      <point x="585" y="25"/>
      <point x="644" y="25" type="curve" smooth="yes"/>
      <point x="740" y="25"/>
      <point x="791" y="141"/>
    </contour>
  </outline>
</glyph>
<glyph name="ampersand" format="1">
  <advance width="625"/>
  <unicode hex="0026"/>
  <outline>
    <contour>
      <point x="453" y="118" type="curve"/>
      <point x="523" y="0" type="line"/>
      <point x="473" y="0" type="line"/>
      <point x="423" y="84" type="line"/>
      <point x="365" y="26"/>
      <point x="296" y="-11"/>
      <point x="214" y="-11" type="curve" smooth="yes"/>
      <point x="103" y="-11"/>
      <point x="32" y="53"/>
      <point x="32" y="156" type="curve" smooth="yes"/>
      <point x="32" y="265"/>
      <point x="118" y="347"/>
      <point x="238" y="396" type="curve"/>
      <point x="216" y="433" type="line" smooth="yes"/>
      <point x="191" y="476"/>
      <point x="177" y="515"/>
      <point x="177" y="554" type="curve" smooth="yes"/>
      <point x="177" y="649"/>
      <point x="242" y="711"/>
      <point x="352" y="711" type="curve" smooth="yes"/>
      <point x="432" y="711"/>
      <point x="490" y="682"/>
      <point x="534" y="640" type="curve"/>
      <point x="507" y="605" type="line"/>
      <point x="463" y="645"/>
      <point x="415" y="670"/>
      <point x="350" y="670" type="curve" smooth="yes"/>
      <point x="269" y="670"/>
      <point x="222" y="625"/>
      <point x="222" y="556" type="curve" smooth="yes"/>
      <point x="222" y="526"/>
      <point x="234" y="489"/>
      <point x="254" y="455" type="curve" smooth="yes"/>
      <point x="430" y="157" type="line"/>
      <point x="463" y="200"/>
      <point x="491" y="251"/>
      <point x="517" y="305" type="curve"/>
      <point x="554" y="283" type="line"/>
      <point x="525" y="222"/>
      <point x="491" y="165"/>
    </contour>
    <contour>
      <point x="401" y="122" type="curve"/>
      <point x="259" y="360" type="line"/>
      <point x="152" y="315"/>
      <point x="77" y="247"/>
      <point x="77" y="157" type="curve" smooth="yes"/>
      <point x="77" y="79"/>
      <point x="131" y="30"/>
      <point x="214" y="30" type="curve" smooth="yes"/>
      <point x="288" y="30"/>
      <point x="349" y="66"/>
    </contour>
  </outline>
</glyph>
<glyph name="quotesingle" format="1">
  <advance width="241"/>
  <unicode hex="0027"/>
  <outline>
    <contour>
      <point x="215" y="700" type="line"/>
      <point x="157" y="428" type="line"/>
      <point x="120" y="428" type="line"/>
      <point x="160" y="700" type="line"/>
    </contour>
  </outline>
</glyph>
<glyph name="parenleft" format="1">
  <advance width="349"/>
  <unicode hex="0028"/>
  <outline>
    <contour>
      <point x="348" y="696" type="line"/>
      <point x="218" y="595"/>
      <point x="108" y="423"/>
      <point x="108" y="213" type="curve" smooth="yes"/>
      <point x="108" y="99"/>
      <point x="147" y="-12"/>
      <point x="207" y="-94" type="curve"/>
      <point x="184" y="-111" type="line"/>
      <point x="120" y="-33"/>
      <point x="64" y="86"/>
      <point x="64" y="225" type="curve" smooth="yes"/>
      <point x="64" y="428"/>
      <point x="182" y="604"/>
      <point x="331" y="717" type="curve"/>
    </contour>
  </outline>
</glyph>
<glyph name="parenright" format="1">
  <advance width="349"/>
  <unicode hex="0029"/>
  <outline>
    <contour>
      <point x="-3" y="-90" type="line"/>
      <point x="127" y="11"/>
      <point x="237" y="183"/>
      <point x="237" y="393" type="curve" smooth="yes"/>
      <point x="237" y="507"/>
      <point x="198" y="618"/>
      <point x="138" y="700" type="curve"/>
      <point x="161" y="717" type="line"/>
      <point x="225" y="639"/>
      <point x="281" y="520"/>
      <point x="281" y="381" type="curve" smooth="yes"/>
      <point x="281" y="178"/>
      <point x="163" y="2"/>
      <point x="14" y="-111" type="curve"/>
    </contour>
  </outline>
</glyph>
<glyph name="asterisk" format="1">
  <advance width="487"/>
  <unicode hex="002A"/>
  <outline>
    <contour>
      <point x="441" y="434" type="line"/>
      <point x="423" y="402" type="line"/>
      <point x="278" y="498" type="line"/>
      <point x="288" y="324" type="line"/>
      <point x="251" y="324" type="line"/>
      <point x="261" y="498" type="line"/>
      <point x="117" y="402" type="line"/>
      <point x="98" y="434" type="line"/>
      <point x="251" y="512" type="line"/>
      <point x="98" y="590" type="line"/>
      <point x="117" y="622" type="line"/>
      <point x="261" y="526" type="line"/>
      <point x="251" y="700" type="line"/>
      <point x="288" y="700" type="line"/>
      <point x="278" y="526" type="line"/>
      <point x="423" y="622" type="line"/>
      <point x="441" y="590" type="line"/>
      <point x="289" y="512" type="line"/>
    </contour>
  </outline>
</glyph>
<glyph name="plus" format="1">
  <advance width="572"/>
  <unicode hex="002B"/>
  <outline>
    <contour>
      <point x="523" y="324" type="line"/>
      <point x="313" y="324" type="line"/>
      <point x="313" y="97" type="line"/>
      <point x="270" y="97" type="line"/>
      <point x="270" y="324" type="line"/>
      <point x="59" y="324" type="line"/>
      <point x="59" y="364" type="line"/>
      <point x="270" y="364" type="line"/>
      <point x="270" y="591" type="line"/>
      <point x="313" y="591" type="line"/>
      <point x="313" y="364" type="line"/>
      <point x="523" y="364" type="line"/>
    </contour>
  </outline>
</glyph>
<glyph name="comma" format="1">
  <advance width="211"/>
  <unicode hex="002C"/>
  <outline>
    <contour>
      <point x="105" y="91" type="line"/>
      <point x="27" y="-96" type="line"/>
      <point x="-5" y="-96" type="line"/>
      <point x="44" y="91" type="line"/>
    </contour>
  </outline>
</glyph>
<glyph name="hyphen" format="1">
  <advance width="317"/>
  <unicode hex="002D"/>
  <unicode hex="2010"/>
  <unicode hex="2011"/>
  <outline>
    <contour>
      <point x="279" y="386" type="line"/>
      <point x="271" y="343" type="line"/>
      <point x="57" y="343" type="line"/>
      <point x="65" y="386" type="line"/>
    </contour>
  </outline>
</glyph>
<glyph name="period" format="1">
  <advance width="211"/>
  <unicode hex="002E"/>
  <outline>
    <contour>
      <point x="99" y="34" type="curve" smooth="yes"/>
      <point x="99" y="12"/>
      <point x="80" y="-6"/>
      <point x="59" y="-6" type="curve" smooth="yes"/>
      <point x="36" y="-6"/>
      <point x="18" y="12"/>
      <point x="18" y="34" type="curve" smooth="yes"/>
      <point x="18" y="57"/>
      <point x="36" y="76"/>
      <point x="59" y="76" type="curve" smooth="yes"/>
      <point x="80" y="76"/>
      <point x="99" y="57"/>
    </contour>
  </outline>
</glyph>
<glyph name="slash" format="1">
  <advance width="414"/>
  <unicode hex="002F"/>
  <outline>
    <contour>
      <point x="461" y="790" type="line"/>
      <point x="13" y="-91" type="line"/>
      <point x="-33" y="-90" type="line"/>
      <point x="415" y="791" type="line"/>
    </contour>
  </outline>
</glyph>
<glyph name="zero" format="1">
  <advance width="643"/>
  <unicode hex="0030"/>
  <outline>
    <contour>
      <point x="63" y="259" type="curve" smooth="yes"/>
      <point x="63" y="496"/>
      <point x="179" y="711"/>
      <point x="367" y="711" type="curve" smooth="yes"/>
      <point x="504" y="711"/>
      <point x="594" y="617"/>
      <point x="594" y="442" type="curve" smooth="yes"/>
      <point x="594" y="205"/>
      <point x="478" y="-11"/>
      <point x="290" y="-11" type="curve" smooth="yes"/>
      <point x="153" y="-11"/>
      <point x="63" y="84"/>
    </contour>
    <contour>
      <point x="549" y="440" type="curve" smooth="yes"/>
      <point x="549" y="583"/>
      <point x="482" y="670"/>
      <point x="369" y="670" type="curve" smooth="yes"/>
      <point x="203" y="670"/>
      <point x="108" y="470"/>
      <point x="108" y="261" type="curve" smooth="yes"/>
      <point x="108" y="118"/>
      <point x="175" y="30"/>
      <point x="288" y="30" type="curve" smooth="yes"/>
      <point x="454" y="30"/>
      <point x="549" y="231"/>
    </contour>
  </outline>
</glyph>
<glyph name="one" format="1">
  <advance width="290"/>
  <unicode hex="0031"/>
  <outline>
    <contour>
      <point x="259" y="702" type="line"/>
      <point x="136" y="0" type="line"/>
      <point x="91" y="0" type="line"/>
      <point x="200" y="621" type="line"/>
      <point x="174" y="594"/>
      <point x="104" y="581"/>
      <point x="70" y="581" type="curve"/>
      <point x="77" y="620" type="line"/>
      <point x="141" y="623"/>
      <point x="203" y="649"/>
      <point x="225" y="702" type="curve"/>
    </contour>
  </outline>
</glyph>
<glyph name="two" format="1">
  <advance width="555"/>
  <unicode hex="0032"/>
  <outline>
    <contour>
      <point x="439" y="0" type="line"/>
      <point x="5" y="0" type="line"/>
      <point x="40" y="146"/>
      <point x="97" y="235"/>
      <point x="270" y="326" type="curve" smooth="yes"/>
      <point x="428" y="409"/>
      <point x="473" y="459"/>
      <point x="473" y="547" type="curve" smooth="yes"/>
      <point x="473" y="622"/>
      <point x="418" y="670"/>
      <point x="319" y="670" type="curve" smooth="yes"/>
      <point x="248" y="670"/>
      <point x="198" y="649"/>
      <point x="150" y="618" type="curve"/>
      <point x="129" y="653" type="line"/>
      <point x="183" y="688"/>
      <point x="241" y="711"/>
      <point x="321" y="711" type="curve" smooth="yes"/>
      <point x="452" y="711"/>
      <point x="518" y="646"/>
      <point x="518" y="547" type="curve" smooth="yes"/>
      <point x="518" y="440"/>
      <point x="466" y="385"/>
      <point x="288" y="290" type="curve" smooth="yes"/>
      <point x="146" y="214"/>
      <point x="93" y="140"/>
      <point x="64" y="44" type="curve"/>
      <point x="446" y="44" type="line"/>
    </contour>
  </outline>
</glyph>
<glyph name="three" format="1">
  <advance width="546"/>
  <unicode hex="0033"/>
  <outline>
    <contour>
      <point x="493" y="557" type="curve" smooth="yes"/>
      <point x="493" y="447"/>
      <point x="416" y="386"/>
      <point x="345" y="369" type="curve"/>
      <point x="393" y="357"/>
      <point x="461" y="320"/>
      <point x="461" y="214" type="curve" smooth="yes"/>
      <point x="461" y="83"/>
      <point x="371" y="-10"/>
      <point x="215" y="-10" type="curve" smooth="yes"/>
      <point x="111" y="-10"/>
      <point x="44" y="29"/>
      <point x="3" y="76" type="curve"/>
      <point x="35" y="106" type="line"/>
      <point x="78" y="59"/>
      <point x="139" y="32"/>
      <point x="218" y="32" type="curve" smooth="yes"/>
      <point x="346" y="32"/>
      <point x="415" y="112"/>
      <point x="415" y="213" type="curve" smooth="yes"/>
      <point x="415" y="299"/>
      <point x="363" y="350"/>
      <point x="263" y="350" type="curve" smooth="yes"/>
      <point x="255" y="350"/>
      <point x="224" y="350"/>
      <point x="214" y="350" type="curve"/>
      <point x="220" y="389" type="line"/>
      <point x="226" y="389"/>
      <point x="258" y="389"/>
      <point x="271" y="389" type="curve" smooth="yes"/>
      <point x="369" y="389"/>
      <point x="447" y="457"/>
      <point x="447" y="553" type="curve" smooth="yes"/>
      <point x="447" y="631"/>
      <point x="397" y="675"/>
      <point x="297" y="675" type="curve" smooth="yes"/>
      <point x="231" y="675"/>
      <point x="177" y="647"/>
      <point x="143" y="622" type="curve"/>
      <point x="120" y="655" type="line"/>
      <point x="161" y="687"/>
      <point x="223" y="716"/>
      <point x="303" y="716" type="curve" smooth="yes"/>
      <point x="427" y="716"/>
      <point x="493" y="656"/>
    </contour>
  </outline>
</glyph>
<glyph name="four" format="1">
  <advance width="591"/>
  <unicode hex="0034"/>
  <outline>
    <contour>
      <point x="536" y="218" type="line"/>
      <point x="529" y="179" type="line"/>
      <point x="424" y="179" type="line"/>
      <point x="393" y="0" type="line"/>
      <point x="350" y="0" type="line"/>
      <point x="382" y="179" type="line"/>
      <point x="16" y="179" type="line"/>
      <point x="23" y="217" type="line"/>
      <point x="466" y="703" type="line"/>
      <point x="517" y="703" type="line"/>
      <point x="432" y="218" type="line"/>
    </contour>
    <contour>
      <point x="465" y="647" type="line"/>
      <point x="78" y="218" type="line"/>
      <point x="389" y="218" type="line"/>
    </contour>
  </outline>
</glyph>
<glyph name="five" format="1">
  <advance width="586"/>
  <unicode hex="0035"/>
  <outline>
    <contour>
      <point x="554" y="700" type="line"/>
      <point x="548" y="656" type="line"/>
      <point x="208" y="656" type="line"/>
      <point x="144" y="393" type="line"/>
      <point x="179" y="417"/>
      <point x="227" y="432"/>
      <point x="291" y="432" type="curve" smooth="yes"/>
      <point x="431" y="432"/>
      <point x="514" y="365"/>
      <point x="514" y="232" type="curve" smooth="yes"/>
      <point x="514" y="75"/>
      <point x="401" y="-12"/>
      <point x="248" y="-12" type="curve" smooth="yes"/>
      <point x="142" y="-12"/>
      <point x="68" y="23"/>
      <point x="26" y="55" type="curve"/>
      <point x="49" y="92" type="line"/>
      <point x="94" y="59"/>
      <point x="166" y="30"/>
      <point x="251" y="30" type="curve" smooth="yes"/>
      <point x="382" y="30"/>
      <point x="468" y="108"/>
      <point x="468" y="232" type="curve" smooth="yes"/>
      <point x="468" y="335"/>
      <point x="407" y="390"/>
      <point x="287" y="390" type="curve" smooth="yes"/>
      <point x="221" y="390"/>
      <point x="175" y="372"/>
      <point x="135" y="343" type="curve"/>
      <point x="93" y="361" type="line"/>
      <point x="174" y="700" type="line"/>
    </contour>
  </outline>
</glyph>
<glyph name="six" format="1">
  <advance width="608"/>
  <unicode hex="0036"/>
  <outline>
    <contour>
      <point x="544" y="228" type="curve" smooth="yes"/>
      <point x="544" y="86"/>
      <point x="438" y="-11"/>
      <point x="293" y="-11" type="curve" smooth="yes"/>
      <point x="146" y="-11"/>
      <point x="54" y="68"/>
      <point x="54" y="212" type="curve" smooth="yes"/>
      <point x="54" y="427"/>
      <point x="190" y="678"/>
      <point x="515" y="709" type="curve"/>
      <point x="508" y="666" type="line"/>
      <point x="241" y="637"/>
      <point x="136" y="447"/>
      <point x="110" y="322" type="curve"/>
      <point x="147" y="379"/>
      <point x="216" y="426"/>
      <point x="325" y="426" type="curve" smooth="yes"/>
      <point x="451" y="426"/>
      <point x="544" y="359"/>
    </contour>
    <contour>
      <point x="498" y="228" type="curve" smooth="yes"/>
      <point x="498" y="327"/>
      <point x="430" y="385"/>
      <point x="314" y="385" type="curve" smooth="yes"/>
      <point x="180" y="385"/>
      <point x="100" y="293"/>
      <point x="100" y="208" type="curve" smooth="yes"/>
      <point x="100" y="97"/>
      <point x="166" y="30"/>
      <point x="293" y="30" type="curve" smooth="yes"/>
      <point x="420" y="30"/>
      <point x="498" y="120"/>
    </contour>
  </outline>
</glyph>
<glyph name="seven" format="1">
  <advance width="534"/>
  <unicode hex="0037"/>
  <outline>
    <contour>
      <point x="550" y="700" type="line"/>
      <point x="542" y="657" type="line"/>
      <point x="380" y="495"/>
      <point x="224" y="277"/>
      <point x="164" y="0" type="curve"/>
      <point x="117" y="0" type="line"/>
      <point x="179" y="275"/>
      <point x="328" y="496"/>
      <point x="486" y="656" type="curve"/>
      <point x="98" y="656" type="line"/>
      <point x="107" y="700" type="line"/>
    </contour>
  </outline>
</glyph>
<glyph name="eight" format="1">
  <advance width="617"/>
  <unicode hex="0038"/>
  <outline>
    <contour>
      <point x="232" y="376" type="curve"/>
      <point x="161" y="398"/>
      <point x="122" y="447"/>
      <point x="122" y="521" type="curve" smooth="yes"/>
      <point x="122" y="624"/>
      <point x="205" y="711"/>
      <point x="347" y="711" type="curve" smooth="yes"/>
      <point x="490" y="711"/>
      <point x="566" y="644"/>
      <point x="566" y="541" type="curve" smooth="yes"/>
      <point x="566" y="446"/>
      <point x="496" y="386"/>
      <point x="403" y="367" type="curve"/>
      <point x="491" y="344"/>
      <point x="545" y="290"/>
      <point x="545" y="201" type="curve" smooth="yes"/>
      <point x="545" y="83"/>
      <point x="450" y="-11"/>
      <point x="288" y="-11" type="curve" smooth="yes"/>
      <point x="139" y="-11"/>
      <point x="39" y="54"/>
      <point x="39" y="177" type="curve" smooth="yes"/>
      <point x="39" y="281"/>
      <point x="114" y="357"/>
    </contour>
    <contour>
      <point x="167" y="521" type="curve" smooth="yes"/>
      <point x="167" y="440"/>
      <point x="231" y="391"/>
      <point x="337" y="391" type="curve" smooth="yes"/>
      <point x="442" y="391"/>
      <point x="521" y="449"/>
      <point x="521" y="541" type="curve" smooth="yes"/>
      <point x="521" y="620"/>
      <point x="458" y="670"/>
      <point x="347" y="670" type="curve" smooth="yes"/>
      <point x="235" y="670"/>
      <point x="167" y="602"/>
    </contour>
    <contour>
      <point x="84" y="177" type="curve" smooth="yes"/>
      <point x="84" y="78"/>
      <point x="170" y="30"/>
      <point x="288" y="30" type="curve" smooth="yes"/>
      <point x="420" y="30"/>
      <point x="499" y="105"/>
      <point x="499" y="201" type="curve" smooth="yes"/>
      <point x="499" y="300"/>
      <point x="418" y="349"/>
      <point x="295" y="349" type="curve" smooth="yes"/>
      <point x="162" y="349"/>
      <point x="84" y="275"/>
    </contour>
  </outline>
</glyph>
<glyph name="nine" format="1">
  <advance width="608"/>
  <unicode hex="0039"/>
  <outline>
    <contour>
      <point x="75" y="472" type="curve" smooth="yes"/>
      <point x="75" y="614"/>
      <point x="181" y="711"/>
      <point x="326" y="711" type="curve" smooth="yes"/>
      <point x="473" y="711"/>
      <point x="565" y="632"/>
      <point x="565" y="488" type="curve" smooth="yes"/>
      <point x="565" y="273"/>
      <point x="429" y="22"/>
      <point x="104" y="-9" type="curve"/>
      <point x="111" y="34" type="line"/>
      <point x="378" y="63"/>
      <point x="483" y="253"/>
      <point x="509" y="378" type="curve"/>
      <point x="472" y="321"/>
      <point x="403" y="274"/>
      <point x="294" y="274" type="curve" smooth="yes"/>
      <point x="168" y="274"/>
      <point x="75" y="341"/>
    </contour>
    <contour>
      <point x="121" y="472" type="curve" smooth="yes"/>
      <point x="121" y="373"/>
      <point x="189" y="315"/>
      <point x="305" y="315" type="curve" smooth="yes"/>
      <point x="439" y="315"/>
      <point x="519" y="407"/>
      <point x="519" y="492" type="curve" smooth="yes"/>
      <point x="519" y="603"/>
      <point x="453" y="670"/>
      <point x="326" y="670" type="curve" smooth="yes"/>
      <point x="199" y="670"/>
      <point x="121" y="580"/>
    </contour>
  </outline>
</glyph>
<glyph name="colon" format="1">
  <advance width="211"/>
  <unicode hex="003A"/>
  <outline>
    <contour>
      <point x="180" y="489" type="curve" smooth="yes"/>
      <point x="180" y="467"/>
      <point x="161" y="449"/>
      <point x="139" y="449" type="curve" smooth="yes"/>
      <point x="117" y="449"/>
      <point x="99" y="467"/>
      <point x="99" y="489" type="curve" smooth="yes"/>
      <point x="99" y="512"/>
      <point x="117" y="531"/>
      <point x="139" y="531" type="curve" smooth="yes"/>
      <point x="161" y="531"/>
      <point x="180" y="512"/>
    </contour>
    <contour>
      <point x="99" y="34" type="curve" smooth="yes"/>
      <point x="99" y="12"/>
      <point x="80" y="-6"/>
      <point x="59" y="-6" type="curve" smooth="yes"/>
      <point x="36" y="-6"/>
      <point x="18" y="12"/>
      <point x="18" y="34" type="curve" smooth="yes"/>
      <point x="18" y="57"/>
      <point x="36" y="76"/>
      <point x="59" y="76" type="curve" smooth="yes"/>
      <point x="80" y="76"/>
      <point x="99" y="57"/>
    </contour>
  </outline>
</glyph>
<glyph name="semicolon" format="1">
  <advance width="211"/>
  <unicode hex="003B"/>
  <outline>
    <contour>
      <point x="180" y="489" type="curve" smooth="yes"/>
      <point x="180" y="467"/>
      <point x="161" y="449"/>
      <point x="139" y="449" type="curve" smooth="yes"/>
      <point x="117" y="449"/>
      <point x="99" y="467"/>
      <point x="99" y="489" type="curve" smooth="yes"/>
      <point x="99" y="512"/>
      <point x="117" y="531"/>
      <point x="139" y="531" type="curve" smooth="yes"/>
      <point x="161" y="531"/>
      <point x="180" y="512"/>
    </contour>
    <contour>
      <point x="100" y="91" type="line"/>
      <point x="22" y="-96" type="line"/>
      <point x="-10" y="-96" type="line"/>
      <point x="39" y="91" type="line"/>
    </contour>
  </outline>
</glyph>
<glyph name="less" format="1">
  <advance width="385"/>
  <unicode hex="003C"/>
  <outline>
    <contour>
      <point x="319" y="63" type="line"/>
      <point x="60" y="324" type="line"/>
      <point x="60" y="364" type="line"/>
      <point x="319" y="625" type="line"/>
      <point x="320" y="571" type="line"/>
      <point x="96" y="344" type="line"/>
      <point x="320" y="118" type="line"/>
    </contour>
  </outline>
</glyph>
<glyph name="equal" format="1">
  <advance width="579"/>
  <unicode hex="003D"/>
  <outline>
    <contour>
      <point x="494" y="428" type="line"/>
      <point x="83" y="428" type="line"/>
      <point x="83" y="469" type="line"/>
      <point x="494" y="469" type="line"/>
    </contour>
    <contour>
      <point x="494" y="219" type="line"/>
      <point x="83" y="219" type="line"/>
      <point x="83" y="260" type="line"/>
      <point x="494" y="260" type="line"/>
    </contour>
  </outline>
</glyph>
<glyph name="greater" format="1">
  <advance width="385"/>
  <unicode hex="003E"/>
  <outline>
    <contour>
      <point x="337" y="324" type="line"/>
      <point x="79" y="63" type="line"/>
      <point x="78" y="117" type="line"/>
      <point x="302" y="344" type="line"/>
      <point x="78" y="570" type="line"/>
      <point x="79" y="625" type="line"/>
      <point x="337" y="364" type="line"/>
    </contour>
  </outline>
</glyph>
<glyph name="question" format="1">
  <advance width="555"/>
  <unicode hex="003F"/>
  <outline>
    <contour>
      <point x="110" y="639" type="line"/>
      <point x="167" y="682"/>
      <point x="241" y="711"/>
      <point x="329" y="711" type="curve" smooth="yes"/>
      <point x="438" y="711"/>
      <point x="520" y="664"/>
      <point x="520" y="564" type="curve" smooth="yes"/>
      <point x="520" y="460"/>
      <point x="458" y="411"/>
      <point x="364" y="357" type="curve" smooth="yes"/>
      <point x="280" y="308"/>
      <point x="263" y="287"/>
      <point x="244" y="166" type="curve"/>
      <point x="199" y="166" type="line"/>
      <point x="222" y="309"/>
      <point x="241" y="332"/>
      <point x="342" y="392" type="curve" smooth="yes"/>
      <point x="417" y="437"/>
      <point x="474" y="477"/>
      <point x="474" y="562" type="curve" smooth="yes"/>
      <point x="474" y="631"/>
      <point x="411" y="669"/>
      <point x="327" y="669" type="curve" smooth="yes"/>
      <point x="251" y="669"/>
      <point x="183" y="641"/>
      <point x="134" y="604" type="curve"/>
    </contour>
    <contour>
      <point x="241" y="33" type="curve" smooth="yes"/>
      <point x="241" y="11"/>
      <point x="223" y="-6"/>
      <point x="202" y="-6" type="curve" smooth="yes"/>
      <point x="181" y="-6"/>
      <point x="163" y="11"/>
      <point x="163" y="33" type="curve" smooth="yes"/>
      <point x="163" y="54"/>
      <point x="181" y="74"/>
      <point x="202" y="74" type="curve" smooth="yes"/>
      <point x="223" y="74"/>
      <point x="241" y="54"/>
    </contour>
  </outline>
</glyph>
<glyph name="at" format="1">
  <advance width="836"/>
  <unicode hex="0040"/>
  <outline>
    <contour>
      <point x="790" y="360" type="curve" smooth="yes"/>
      <point x="790" y="210"/>
      <point x="728" y="152"/>
      <point x="644" y="152" type="curve" smooth="yes"/>
      <point x="594" y="152"/>
      <point x="556" y="180"/>
      <point x="543" y="225" type="curve"/>
      <point x="512" y="180"/>
      <point x="463" y="152"/>
      <point x="405" y="152" type="curve" smooth="yes"/>
      <point x="327" y="152"/>
      <point x="259" y="190"/>
      <point x="259" y="280" type="curve" smooth="yes"/>
      <point x="259" y="365"/>
      <point x="328" y="411"/>
      <point x="414" y="411" type="curve" smooth="yes"/>
      <point x="467" y="411"/>
      <point x="507" y="397"/>
      <point x="537" y="379" type="curve"/>
      <point x="537" y="444" type="line" smooth="yes"/>
      <point x="537" y="510"/>
      <point x="502" y="535"/>
      <point x="424" y="535" type="curve" smooth="yes"/>
      <point x="382" y="535"/>
      <point x="348" y="524"/>
      <point x="314" y="508" type="curve"/>
      <point x="302" y="536" type="line"/>
      <point x="338" y="553"/>
      <point x="379" y="566"/>
      <point x="428" y="566" type="curve" smooth="yes"/>
      <point x="516" y="566"/>
      <point x="568" y="536"/>
      <point x="568" y="446" type="curve" smooth="yes"/>
      <point x="568" y="261" type="line" smooth="yes"/>
      <point x="568" y="211"/>
      <point x="594" y="179"/>
      <point x="648" y="179" type="curve" smooth="yes"/>
      <point x="711" y="179"/>
      <point x="760" y="229"/>
      <point x="760" y="359" type="curve" smooth="yes"/>
      <point x="760" y="544"/>
      <point x="622" y="683"/>
      <point x="429" y="683" type="curve" smooth="yes"/>
      <point x="237" y="683"/>
      <point x="98" y="547"/>
      <point x="98" y="351" type="curve" smooth="yes"/>
      <point x="98" y="154"/>
      <point x="237" y="17"/>
      <point x="429" y="17" type="curve" smooth="yes"/>
      <point x="484" y="17"/>
      <point x="525" y="26"/>
      <point x="573" y="49" type="curve"/>
      <point x="583" y="23" type="line"/>
      <point x="526" y="-3"/>
      <point x="486" y="-11"/>
      <point x="429" y="-11" type="curve" smooth="yes"/>
      <point x="220" y="-11"/>
      <point x="68" y="141"/>
      <point x="68" y="350" type="curve" smooth="yes"/>
      <point x="68" y="559"/>
      <point x="220" y="711"/>
      <point x="429" y="711" type="curve" smooth="yes"/>
      <point x="642" y="711"/>
      <point x="790" y="550"/>
    </contour>
    <contour>
      <point x="537" y="256" type="curve"/>
      <point x="537" y="349" type="line"/>
      <point x="507" y="366"/>
      <point x="465" y="382"/>
      <point x="411" y="382" type="curve" smooth="yes"/>
      <point x="344" y="382"/>
      <point x="292" y="345"/>
      <point x="292" y="282" type="curve" smooth="yes"/>
      <point x="292" y="213"/>
      <point x="339" y="183"/>
      <point x="408" y="183" type="curve" smooth="yes"/>
      <point x="461" y="183"/>
      <point x="509" y="213"/>
    </contour>
  </outline>
</glyph>
<glyph name="A" format="1">
  <advance width="660"/>
  <unicode hex="0041"/>
  <outline>
    <contour>
      <point x="155" y="193" type="line"/>
      <point x="56" y="0" type="line"/>
      <point x="7" y="0" type="line"/>
      <point x="373" y="702" type="line"/>
      <point x="424" y="702" type="line"/>
      <point x="542" y="0" type="line"/>
      <point x="495" y="0" type="line"/>
      <point x="463" y="193" type="line"/>
    </contour>
    <contour>
      <point x="456" y="235" type="line"/>
      <point x="389" y="646" type="line"/>
      <point x="177" y="235" type="line"/>
    </contour>
  </outline>
</glyph>
<glyph name="B" format="1">
  <advance width="603"/>
  <unicode hex="0042"/>
  <outline>
    <contour>
      <point x="549" y="551" type="curve" smooth="yes"/>
      <point x="549" y="452"/>
      <point x="483" y="395"/>
      <point x="409" y="377" type="curve"/>
      <point x="473" y="365"/>
      <point x="530" y="315"/>
      <point x="530" y="222" type="curve" smooth="yes"/>
      <point x="530" y="87"/>
      <point x="430" y="0"/>
      <point x="265" y="0" type="curve" smooth="yes"/>
      <point x="41" y="0" type="line"/>
      <point x="165" y="700" type="line"/>
      <point x="359" y="700" type="line" smooth="yes"/>
      <point x="473" y="700"/>
      <point x="549" y="657"/>
    </contour>
    <contour>
      <point x="503" y="549" type="curve" smooth="yes"/>
      <point x="503" y="625"/>
      <point x="450" y="658"/>
      <point x="356" y="658" type="curve" smooth="yes"/>
      <point x="204" y="658" type="line"/>
      <point x="158" y="398" type="line"/>
      <point x="342" y="398" type="line" smooth="yes"/>
      <point x="434" y="398"/>
      <point x="503" y="460"/>
    </contour>
    <contour>
      <point x="484" y="221" type="curve" smooth="yes"/>
      <point x="484" y="316"/>
      <point x="416" y="357"/>
      <point x="330" y="357" type="curve" smooth="yes"/>
      <point x="150" y="357" type="line"/>
      <point x="95" y="42" type="line"/>
      <point x="276" y="42" type="line" smooth="yes"/>
      <point x="408" y="42"/>
      <point x="484" y="111"/>
    </contour>
  </outline>
</glyph>
<glyph name="C" format="1">
  <advance width="615"/>
  <unicode hex="0043"/>
  <outline>
    <contour>
      <point x="598" y="611" type="curve"/>
      <point x="561" y="586" type="line"/>
      <point x="528" y="635"/>
      <point x="480" y="669"/>
      <point x="402" y="669" type="curve" smooth="yes"/>
      <point x="225" y="669"/>
      <point x="112" y="480"/>
      <point x="112" y="279" type="curve" smooth="yes"/>
      <point x="112" y="122"/>
      <point x="197" y="31"/>
      <point x="317" y="31" type="curve" smooth="yes"/>
      <point x="383" y="31"/>
      <point x="437" y="58"/>
      <point x="490" y="107" type="curve"/>
      <point x="517" y="75" type="line"/>
      <point x="461" y="20"/>
      <point x="391" y="-11"/>
      <point x="312" y="-11" type="curve" smooth="yes"/>
      <point x="171" y="-11"/>
      <point x="66" y="92"/>
      <point x="66" y="275" type="curve" smooth="yes"/>
      <point x="66" y="509"/>
      <point x="206" y="711"/>
      <point x="406" y="711" type="curve" smooth="yes"/>
      <point x="499" y="711"/>
      <point x="559" y="672"/>
    </contour>
  </outline>
</glyph>
<glyph name="D" format="1">
  <advance width="657"/>
  <unicode hex="0044"/>
  <outline>
    <contour>
      <point x="600" y="423" type="curve" smooth="yes"/>
      <point x="600" y="145"/>
      <point x="426" y="0"/>
      <point x="216" y="0" type="curve" smooth="yes"/>
      <point x="41" y="0" type="line"/>
      <point x="165" y="700" type="line"/>
      <point x="308" y="700" type="line" smooth="yes"/>
      <point x="485" y="700"/>
      <point x="600" y="616"/>
    </contour>
    <contour>
      <point x="554" y="421" type="curve" smooth="yes"/>
      <point x="554" y="588"/>
      <point x="461" y="658"/>
      <point x="304" y="658" type="curve" smooth="yes"/>
      <point x="204" y="658" type="line"/>
      <point x="95" y="42" type="line"/>
      <point x="219" y="42" type="line" smooth="yes"/>
      <point x="411" y="42"/>
      <point x="554" y="180"/>
    </contour>
  </outline>
</glyph>
<glyph name="E" format="1">
  <advance width="552"/>
  <unicode hex="0045"/>
  <outline>
    <contour>
      <point x="558" y="700" type="line"/>
      <point x="550" y="658" type="line"/>
      <point x="204" y="658" type="line"/>
      <point x="157" y="394" type="line"/>
      <point x="368" y="394" type="line"/>
      <point x="361" y="352" type="line"/>
      <point x="150" y="352" type="line"/>
      <point x="95" y="42" type="line"/>
      <point x="458" y="42" type="line"/>
      <point x="450" y="0" type="line"/>
      <point x="41" y="0" type="line"/>
      <point x="165" y="700" type="line"/>
    </contour>
  </outline>
</glyph>
<glyph name="F" format="1">
  <advance width="519"/>
  <unicode hex="0046"/>
  <outline>
    <contour>
      <point x="545" y="700" type="line"/>
      <point x="538" y="658" type="line"/>
      <point x="204" y="658" type="line"/>
      <point x="155" y="382" type="line"/>
      <point x="357" y="382" type="line"/>
      <point x="349" y="340" type="line"/>
      <point x="148" y="340" type="line"/>
      <point x="87" y="0" type="line"/>
      <point x="41" y="0" type="line"/>
      <point x="165" y="700" type="line"/>
    </contour>
  </outline>
</glyph>
<glyph name="G" format="1">
  <advance width="658"/>
  <unicode hex="0047"/>
  <outline>
    <contour>
      <point x="609" y="602" type="curve"/>
      <point x="570" y="576" type="line"/>
      <point x="532" y="634"/>
      <point x="487" y="669"/>
      <point x="402" y="669" type="curve" smooth="yes"/>
      <point x="229" y="669"/>
      <point x="112" y="482"/>
      <point x="112" y="277" type="curve" smooth="yes"/>
      <point x="112" y="118"/>
      <point x="193" y="31"/>
      <point x="317" y="31" type="curve" smooth="yes"/>
      <point x="437" y="31"/>
      <point x="514" y="100"/>
      <point x="539" y="265" type="curve" smooth="yes"/>
      <point x="542" y="285" type="line"/>
      <point x="392" y="285" type="line"/>
      <point x="400" y="328" type="line"/>
      <point x="596" y="328" type="line"/>
      <point x="587" y="273" type="line" smooth="yes"/>
      <point x="553" y="68"/>
      <point x="456" y="-11"/>
      <point x="312" y="-11" type="curve" smooth="yes"/>
      <point x="169" y="-11"/>
      <point x="66" y="90"/>
      <point x="66" y="272" type="curve" smooth="yes"/>
      <point x="66" y="501"/>
      <point x="200" y="711"/>
      <point x="402" y="711" type="curve" smooth="yes"/>
      <point x="504" y="711"/>
      <point x="568" y="669"/>
    </contour>
  </outline>
</glyph>
<glyph name="H" format="1">
  <advance width="670"/>
  <unicode hex="0048"/>
  <outline>
    <contour>
      <point x="641" y="700" type="line"/>
      <point x="517" y="0" type="line"/>
      <point x="471" y="0" type="line"/>
      <point x="533" y="345" type="line"/>
      <point x="148" y="345" type="line"/>
      <point x="86" y="0" type="line"/>
      <point x="40" y="0" type="line"/>
      <point x="164" y="700" type="line"/>
      <point x="210" y="700" type="line"/>
      <point x="155" y="387" type="line"/>
      <point x="540" y="387" type="line"/>
      <point x="595" y="700" type="line"/>
    </contour>
  </outline>
</glyph>
<glyph name="I" format="1">
  <advance width="249"/>
  <unicode hex="0049"/>
  <outline>
    <contour>
      <point x="218" y="700" type="line"/>
      <point x="94" y="0" type="line"/>
      <point x="48" y="0" type="line"/>
      <point x="172" y="700" type="line"/>
    </contour>
  </outline>
</glyph>
<glyph name="J" format="1">
  <advance width="556"/>
  <unicode hex="004A"/>
  <outline>
    <contour>
      <point x="535" y="700" type="line"/>
      <point x="454" y="245" type="line" smooth="yes"/>
      <point x="435" y="140"/>
      <point x="406" y="76"/>
      <point x="354" y="34" type="curve" smooth="yes"/>
      <point x="316" y="3"/>
      <point x="268" y="-11"/>
      <point x="210" y="-11" type="curve" smooth="yes"/>
      <point x="82" y="-11"/>
      <point x="28" y="66"/>
      <point x="8" y="140" type="curve"/>
      <point x="52" y="152" type="line"/>
      <point x="76" y="80"/>
      <point x="118" y="31"/>
      <point x="211" y="31" type="curve" smooth="yes"/>
      <point x="320" y="31"/>
      <point x="383" y="99"/>
      <point x="408" y="241" type="curve" smooth="yes"/>
      <point x="489" y="700" type="line"/>
    </contour>
  </outline>
</glyph>
<glyph name="K" format="1">
  <advance width="612"/>
  <unicode hex="004B"/>
  <outline>
    <contour>
      <point x="603" y="700" type="line"/>
      <point x="339" y="422" type="line"/>
      <point x="512" y="0" type="line"/>
      <point x="464" y="0" type="line"/>
      <point x="304" y="387" type="line"/>
      <point x="122" y="194" type="line"/>
      <point x="87" y="0" type="line"/>
      <point x="41" y="0" type="line"/>
      <point x="165" y="700" type="line"/>
      <point x="211" y="700" type="line"/>
      <point x="134" y="262" type="line"/>
      <point x="549" y="700" type="line"/>
    </contour>
  </outline>
</glyph>
<glyph name="L" format="1">
  <advance width="534"/>
  <unicode hex="004C"/>
  <outline>
    <contour>
      <point x="437" y="42" type="line"/>
      <point x="429" y="0" type="line"/>
      <point x="41" y="0" type="line"/>
      <point x="165" y="700" type="line"/>
      <point x="211" y="700" type="line"/>
      <point x="95" y="42" type="line"/>
    </contour>
  </outline>
</glyph>
<glyph name="M" format="1">
  <advance width="786"/>
  <unicode hex="004D"/>
  <outline>
    <contour>
      <point x="759" y="700" type="line"/>
      <point x="635" y="0" type="line"/>
      <point x="590" y="0" type="line"/>
      <point x="698" y="607" type="line"/>
      <point x="693" y="595"/>
      <point x="335" y="-14"/>
      <point x="335" y="-14" type="curve"/>
      <point x="335" y="-14"/>
      <point x="194" y="595"/>
      <point x="193" y="607" type="curve"/>
      <point x="86" y="0" type="line"/>
      <point x="41" y="0" type="line"/>
      <point x="165" y="700" type="line"/>
      <point x="215" y="700" type="line"/>
      <point x="352" y="88" type="line"/>
      <point x="707" y="700" type="line"/>
    </contour>
  </outline>
</glyph>
<glyph name="N" format="1">
  <advance width="669"/>
  <unicode hex="004E"/>
  <outline>
    <contour>
      <point x="637" y="700" type="line"/>
      <point x="513" y="0" type="line"/>
      <point x="468" y="0" type="line"/>
      <point x="198" y="630" type="line"/>
      <point x="86" y="0" type="line"/>
      <point x="41" y="0" type="line"/>
      <point x="165" y="700" type="line"/>
      <point x="213" y="700" type="line"/>
      <point x="482" y="73" type="line"/>
      <point x="593" y="700" type="line"/>
    </contour>
  </outline>
</glyph>
<glyph name="O" format="1">
  <advance width="711"/>
  <unicode hex="004F"/>
  <outline>
    <contour>
      <point x="66" y="270" type="curve" smooth="yes"/>
      <point x="66" y="497"/>
      <point x="195" y="711"/>
      <point x="409" y="711" type="curve" smooth="yes"/>
      <point x="557" y="711"/>
      <point x="656" y="601"/>
      <point x="656" y="433" type="curve" smooth="yes"/>
      <point x="657" y="216"/>
      <point x="535" y="-11"/>
      <point x="316" y="-11" type="curve" smooth="yes"/>
      <point x="168" y="-11"/>
      <point x="66" y="95"/>
    </contour>
    <contour>
      <point x="610" y="431" type="curve" smooth="yes"/>
      <point x="610" y="569"/>
      <point x="529" y="669"/>
      <point x="407" y="669" type="curve" smooth="yes"/>
      <point x="217" y="669"/>
      <point x="112" y="473"/>
      <point x="112" y="272" type="curve" smooth="yes"/>
      <point x="112" y="127"/>
      <point x="196" y="31"/>
      <point x="318" y="31" type="curve" smooth="yes"/>
      <point x="508" y="31"/>
      <point x="611" y="238"/>
    </contour>
  </outline>
</glyph>
<glyph name="P" format="1">
  <advance width="590"/>
  <unicode hex="0050"/>
  <outline>
    <contour>
      <point x="579" y="532" type="curve" smooth="yes"/>
      <point x="579" y="379"/>
      <point x="482" y="292"/>
      <point x="296" y="292" type="curve" smooth="yes"/>
      <point x="139" y="292" type="line"/>
      <point x="87" y="0" type="line"/>
      <point x="41" y="0" type="line"/>
      <point x="165" y="700" type="line"/>
      <point x="359" y="700" type="line" smooth="yes"/>
      <point x="497" y="700"/>
      <point x="579" y="648"/>
    </contour>
    <contour>
      <point x="531" y="530" type="curve" smooth="yes"/>
      <point x="531" y="622"/>
      <point x="464" y="658"/>
      <point x="356" y="658" type="curve" smooth="yes"/>
      <point x="204" y="658" type="line"/>
      <point x="147" y="333" type="line"/>
      <point x="299" y="333" type="line" smooth="yes"/>
      <point x="459" y="333"/>
      <point x="531" y="413"/>
    </contour>
  </outline>
</glyph>
<glyph name="Q" format="1">
  <advance width="712"/>
  <unicode hex="0051"/>
  <outline>
    <contour>
      <point x="488" y="46" type="curve"/>
      <point x="526" y="-22" type="line"/>
      <point x="488" y="-45" type="line"/>
      <point x="451" y="22" type="line"/>
      <point x="411" y="2"/>
      <point x="366" y="-10"/>
      <point x="317" y="-10" type="curve" smooth="yes"/>
      <point x="169" y="-10"/>
      <point x="66" y="95"/>
      <point x="66" y="270" type="curve" smooth="yes"/>
      <point x="66" y="497"/>
      <point x="195" y="711"/>
      <point x="409" y="711" type="curve" smooth="yes"/>
      <point x="557" y="711"/>
      <point x="656" y="601"/>
      <point x="656" y="433" type="curve" smooth="yes"/>
      <point x="656" y="282"/>
      <point x="598" y="126"/>
    </contour>
    <contour>
      <point x="431" y="58" type="curve"/>
      <point x="375" y="159" type="line"/>
      <point x="413" y="181" type="line"/>
      <point x="468" y="82" type="line"/>
      <point x="561" y="157"/>
      <point x="610" y="298"/>
      <point x="610" y="431" type="curve" smooth="yes"/>
      <point x="609" y="569"/>
      <point x="529" y="669"/>
      <point x="407" y="669" type="curve" smooth="yes"/>
      <point x="217" y="669"/>
      <point x="112" y="473"/>
      <point x="112" y="272" type="curve" smooth="yes"/>
      <point x="112" y="127"/>
      <point x="195" y="31"/>
      <point x="317" y="31" type="curve" smooth="yes"/>
      <point x="359" y="31"/>
      <point x="397" y="40"/>
    </contour>
  </outline>
</glyph>
<glyph name="R" format="1">
  <advance width="619"/>
  <unicode hex="0052"/>
  <outline>
    <contour>
      <point x="586" y="537" type="curve" smooth="yes"/>
      <point x="586" y="409"/>
      <point x="516" y="336"/>
      <point x="377" y="316" type="curve"/>
      <point x="485" y="0" type="line"/>
      <point x="436" y="0" type="line"/>
      <point x="330" y="312" type="line"/>
      <point x="322" y="311"/>
      <point x="296" y="311"/>
      <point x="288" y="311" type="curve" smooth="yes"/>
      <point x="143" y="311" type="line"/>
      <point x="87" y="0" type="line"/>
      <point x="41" y="0" type="line"/>
      <point x="165" y="700" type="line"/>
      <point x="371" y="700" type="line" smooth="yes"/>
      <point x="499" y="700"/>
      <point x="586" y="652"/>
    </contour>
    <contour>
      <point x="540" y="535" type="curve" smooth="yes"/>
      <point x="540" y="620"/>
      <point x="479" y="658"/>
      <point x="366" y="658" type="curve" smooth="yes"/>
      <point x="204" y="658" type="line"/>
      <point x="150" y="353" type="line"/>
      <point x="321" y="353" type="line" smooth="yes"/>
      <point x="476" y="353"/>
      <point x="540" y="427"/>
    </contour>
  </outline>
</glyph>
<glyph name="S" format="1">
  <advance width="573"/>
  <unicode hex="0053"/>
  <outline>
    <contour>
      <point x="537" y="630" type="curve"/>
      <point x="510" y="594" type="line"/>
      <point x="470" y="630"/>
      <point x="409" y="667"/>
      <point x="319" y="667" type="curve" smooth="yes"/>
      <point x="206" y="667"/>
      <point x="155" y="600"/>
      <point x="155" y="528" type="curve" smooth="yes"/>
      <point x="155" y="469"/>
      <point x="186" y="430"/>
      <point x="302" y="380" type="curve" smooth="yes"/>
      <point x="439" y="321"/>
      <point x="477" y="272"/>
      <point x="477" y="185" type="curve" smooth="yes"/>
      <point x="477" y="63"/>
      <point x="387" y="-13"/>
      <point x="253" y="-13" type="curve" smooth="yes"/>
      <point x="143" y="-13"/>
      <point x="62" y="37"/>
      <point x="17" y="84" type="curve"/>
      <point x="47" y="117" type="line"/>
      <point x="92" y="70"/>
      <point x="165" y="29"/>
      <point x="256" y="29" type="curve" smooth="yes"/>
      <point x="359" y="29"/>
      <point x="431" y="90"/>
      <point x="431" y="182" type="curve" smooth="yes"/>
      <point x="431" y="248"/>
      <point x="394" y="290"/>
      <point x="274" y="343" type="curve" smooth="yes"/>
      <point x="148" y="398"/>
      <point x="109" y="441"/>
      <point x="109" y="524" type="curve" smooth="yes"/>
      <point x="109" y="631"/>
      <point x="184" y="709"/>
      <point x="322" y="709" type="curve" smooth="yes"/>
      <point x="425" y="709"/>
      <point x="493" y="671"/>
    </contour>
  </outline>
</glyph>
<glyph name="T" format="1">
  <advance width="570"/>
  <unicode hex="0054"/>
  <outline>
    <contour>
      <point x="590" y="700" type="line"/>
      <point x="582" y="658" type="line"/>
      <point x="368" y="658" type="line"/>
      <point x="252" y="0" type="line"/>
      <point x="206" y="0" type="line"/>
      <point x="322" y="658" type="line"/>
      <point x="107" y="658" type="line"/>
      <point x="115" y="700" type="line"/>
    </contour>
  </outline>
</glyph>
<glyph name="U" format="1">
  <advance width="663"/>
  <unicode hex="0055"/>
  <outline>
    <contour>
      <point x="639" y="700" type="line"/>
      <point x="562" y="259" type="line" smooth="yes"/>
      <point x="529" y="68"/>
      <point x="439" y="-11"/>
      <point x="295" y="-11" type="curve" smooth="yes"/>
      <point x="151" y="-11"/>
      <point x="76" y="61"/>
      <point x="76" y="190" type="curve" smooth="yes"/>
      <point x="76" y="214"/>
      <point x="79" y="243"/>
      <point x="84" y="271" type="curve" smooth="yes"/>
      <point x="160" y="700" type="line"/>
      <point x="206" y="700" type="line"/>
      <point x="130" y="273" type="line" smooth="yes"/>
      <point x="125" y="244"/>
      <point x="122" y="217"/>
      <point x="122" y="194" type="curve" smooth="yes"/>
      <point x="122" y="88"/>
      <point x="180" y="31"/>
      <point x="302" y="31" type="curve" smooth="yes"/>
      <point x="415" y="31"/>
      <point x="488" y="99"/>
      <point x="517" y="264" type="curve" smooth="yes"/>
      <point x="593" y="700" type="line"/>
    </contour>
  </outline>
</glyph>
<glyph name="V" format="1">
  <advance width="654"/>
  <unicode hex="0056"/>
  <outline>
    <contour>
      <point x="659" y="700" type="line"/>
      <point x="296" y="-2" type="line"/>
      <point x="245" y="-2" type="line"/>
      <point x="129" y="700" type="line"/>
      <point x="176" y="700" type="line"/>
      <point x="266" y="147" type="line" smooth="yes"/>
      <point x="270" y="123"/>
      <point x="278" y="63"/>
      <point x="279" y="49" type="curve"/>
      <point x="285" y="63"/>
      <point x="316" y="124"/>
      <point x="328" y="148" type="curve" smooth="yes"/>
      <point x="611" y="700" type="line"/>
    </contour>
  </outline>
</glyph>
<glyph name="W" format="1">
  <advance width="871"/>
  <unicode hex="0057"/>
  <outline>
    <contour>
      <point x="872" y="700" type="line"/>
      <point x="598" y="-2" type="line"/>
      <point x="547" y="-2" type="line"/>
      <point x="491" y="641" type="line"/>
      <point x="211" y="-2" type="line"/>
      <point x="160" y="-2" type="line"/>
      <point x="134" y="700" type="line"/>
      <point x="179" y="700" type="line"/>
      <point x="196" y="56" type="line"/>
      <point x="477" y="701" type="line"/>
      <point x="527" y="701" type="line"/>
      <point x="581" y="56" type="line"/>
      <point x="826" y="700" type="line"/>
    </contour>
  </outline>
</glyph>
<glyph name="X" format="1">
  <advance width="611"/>
  <unicode hex="0058"/>
  <outline>
    <contour>
      <point x="338" y="365" type="line"/>
      <point x="494" y="0" type="line"/>
      <point x="445" y="0" type="line"/>
      <point x="307" y="324" type="line"/>
      <point x="56" y="0" type="line"/>
      <point x="4" y="0" type="line"/>
      <point x="288" y="367" type="line"/>
      <point x="147" y="700" type="line"/>
      <point x="195" y="700" type="line"/>
      <point x="319" y="407" type="line"/>
      <point x="546" y="700" type="line"/>
      <point x="598" y="700" type="line"/>
    </contour>
  </outline>
</glyph>
<glyph name="Y" format="1">
  <advance width="629"/>
  <unicode hex="0059"/>
  <outline>
    <contour>
      <point x="642" y="700" type="line"/>
      <point x="331" y="285" type="line"/>
      <point x="281" y="0" type="line"/>
      <point x="235" y="0" type="line"/>
      <point x="286" y="288" type="line"/>
      <point x="123" y="700" type="line"/>
      <point x="173" y="700" type="line"/>
      <point x="317" y="331" type="line"/>
      <point x="589" y="700" type="line"/>
    </contour>
  </outline>
</glyph>
<glyph name="Z" format="1">
  <advance width="602"/>
  <unicode hex="005A"/>
  <outline>
    <contour>
      <point x="600" y="700" type="line"/>
      <point x="593" y="659" type="line"/>
      <point x="67" y="41" type="line"/>
      <point x="484" y="41" type="line"/>
      <point x="476" y="0" type="line"/>
      <point x="6" y="0" type="line"/>
      <point x="14" y="41" type="line"/>
      <point x="539" y="659" type="line"/>
      <point x="144" y="659" type="line"/>
      <point x="151" y="700" type="line"/>
    </contour>
  </outline>
</glyph>
<glyph name="bracketleft" format="1">
  <advance width="334"/>
  <unicode hex="005B"/>
  <outline>
    <contour>
      <point x="337" y="700" type="line"/>
      <point x="330" y="664" type="line"/>
      <point x="205" y="664" type="line"/>
      <point x="75" y="-74" type="line"/>
      <point x="200" y="-74" type="line"/>
      <point x="194" y="-110" type="line"/>
      <point x="25" y="-110" type="line"/>
      <point x="167" y="700" type="line"/>
    </contour>
  </outline>
</glyph>
<glyph name="backslash" format="1">
  <advance width="414"/>
  <unicode hex="005C"/>
  <outline>
    <contour>
      <point x="304" y="-90" type="line"/>
      <point x="261" y="-90" type="line"/>
      <point x="124" y="790" type="line"/>
      <point x="166" y="790" type="line"/>
    </contour>
  </outline>
</glyph>
<glyph name="bracketright" format="1">
  <advance width="334"/>
  <unicode hex="005D"/>
  <outline>
    <contour>
      <point x="303" y="700" type="line"/>
      <point x="160" y="-110" type="line"/>
      <point x="-9" y="-110" type="line"/>
      <point x="-3" y="-74" type="line"/>
      <point x="123" y="-74" type="line"/>
      <point x="253" y="664" type="line"/>
      <point x="127" y="664" type="line"/>
      <point x="134" y="700" type="line"/>
    </contour>
  </outline>
</glyph>
<glyph name="asciicircum" format="1">
  <advance width="550"/>
  <unicode hex="005E"/>
  <outline>
    <contour>
      <point x="506" y="382" type="line"/>
      <point x="457" y="382" type="line"/>
      <point x="337" y="652" type="line"/>
      <point x="121" y="382" type="line"/>
      <point x="69" y="382" type="line"/>
      <point x="327" y="700" type="line"/>
      <point x="360" y="700" type="line"/>
    </contour>
  </outline>
</glyph>
<glyph name="underscore" format="1">
  <advance width="500"/>
  <unicode hex="005F"/>
  <outline>
    <contour>
      <point x="432" y="-96" type="line"/>
      <point x="425" y="-133" type="line"/>
      <point x="-75" y="-133" type="line"/>
      <point x="-68" y="-96" type="line"/>
    </contour>
  </outline>
</glyph>
<glyph name="grave" format="1">
  <advance width="500"/>
  <unicode hex="0060"/>
  <outline>
    <contour>
      <point x="360" y="596" type="line"/>
      <point x="327" y="595" type="line"/>
      <point x="222" y="742" type="line"/>
      <point x="282" y="742" type="line"/>
    </contour>
  </outline>
</glyph>
<glyph name="a" format="1">
  <advance width="526"/>
  <unicode hex="0061"/>
  <outline>
    <contour>
      <point x="457" y="405" type="curve" smooth="yes"/>
      <point x="457" y="390"/>
      <point x="456" y="374"/>
      <point x="453" y="357" type="curve" smooth="yes"/>
      <point x="390" y="0" type="line"/>
      <point x="346" y="0" type="line"/>
      <point x="359" y="76" type="line"/>
      <point x="311" y="26"/>
      <point x="251" y="-11"/>
      <point x="176" y="-11" type="curve" smooth="yes"/>
      <point x="94" y="-11"/>
      <point x="21" y="30"/>
      <point x="21" y="134" type="curve" smooth="yes"/>
      <point x="21" y="255"/>
      <point x="105" y="320"/>
      <point x="233" y="320" type="curve" smooth="yes"/>
      <point x="298" y="320"/>
      <point x="360" y="298"/>
      <point x="394" y="278" type="curve"/>
      <point x="408" y="354" type="line" smooth="yes"/>
      <point x="411" y="370"/>
      <point x="412" y="386"/>
      <point x="412" y="400" type="curve" smooth="yes"/>
      <point x="412" y="462"/>
      <point x="379" y="498"/>
      <point x="289" y="498" type="curve" smooth="yes"/>
      <point x="234" y="498"/>
      <point x="177" y="479"/>
      <point x="143" y="462" type="curve"/>
      <point x="130" y="498" type="line"/>
      <point x="166" y="516"/>
      <point x="229" y="536"/>
      <point x="293" y="536" type="curve" smooth="yes"/>
      <point x="402" y="536"/>
      <point x="457" y="494"/>
    </contour>
    <contour>
      <point x="388" y="241" type="line"/>
      <point x="350" y="264"/>
      <point x="298" y="284"/>
      <point x="231" y="284" type="curve" smooth="yes"/>
      <point x="128" y="284"/>
      <point x="66" y="226"/>
      <point x="66" y="137" type="curve" smooth="yes"/>
      <point x="66" y="62"/>
      <point x="114" y="26"/>
      <point x="186" y="26" type="curve" smooth="yes"/>
      <point x="257" y="26"/>
      <point x="319" y="68"/>
      <point x="367" y="124" type="curve"/>
    </contour>
  </outline>
</glyph>
<glyph name="b" format="1">
  <advance width="549"/>
  <unicode hex="0062"/>
  <outline>
    <contour>
      <point x="490" y="337" type="curve" smooth="yes"/>
      <point x="490" y="152"/>
      <point x="404" y="-11"/>
      <point x="249" y="-11" type="curve" smooth="yes"/>
      <point x="183" y="-11"/>
      <point x="125" y="23"/>
      <point x="88" y="83" type="curve"/>
      <point x="73" y="0" type="line"/>
      <point x="29" y="0" type="line"/>
      <point x="153" y="696" type="line"/>
      <point x="201" y="721" type="line"/>
      <point x="153" y="451" type="line"/>
      <point x="191" y="492"/>
      <point x="251" y="535"/>
      <point x="321" y="535" type="curve" smooth="yes"/>
      <point x="419" y="535"/>
      <point x="490" y="469"/>
    </contour>
    <contour>
      <point x="446" y="335" type="curve" smooth="yes"/>
      <point x="446" y="438"/>
      <point x="397" y="496"/>
      <point x="309" y="496" type="curve" smooth="yes"/>
      <point x="248" y="496"/>
      <point x="195" y="460"/>
      <point x="145" y="404" type="curve"/>
      <point x="96" y="129" type="line"/>
      <point x="129" y="66"/>
      <point x="181" y="28"/>
      <point x="251" y="28" type="curve" smooth="yes"/>
      <point x="370" y="28"/>
      <point x="446" y="163"/>
    </contour>
  </outline>
</glyph>
<glyph name="c" format="1">
  <advance width="488"/>
  <unicode hex="0063"/>
  <outline>
    <contour>
      <point x="460" y="467" type="curve"/>
      <point x="430" y="438" type="line"/>
      <point x="404" y="467"/>
      <point x="362" y="496"/>
      <point x="297" y="496" type="curve" smooth="yes"/>
      <point x="186" y="496"/>
      <point x="92" y="381"/>
      <point x="92" y="208" type="curve" smooth="yes"/>
      <point x="92" y="88"/>
      <point x="156" y="28"/>
      <point x="248" y="28" type="curve" smooth="yes"/>
      <point x="296" y="28"/>
      <point x="336" y="45"/>
      <point x="372" y="75" type="curve"/>
      <point x="395" y="45" type="line"/>
      <point x="351" y="7"/>
      <point x="301" y="-11"/>
      <point x="242" y="-11" type="curve" smooth="yes"/>
      <point x="125" y="-11"/>
      <point x="47" y="64"/>
      <point x="47" y="207" type="curve" smooth="yes"/>
      <point x="47" y="410"/>
      <point x="163" y="535"/>
      <point x="299" y="535" type="curve" smooth="yes"/>
      <point x="382" y="535"/>
      <point x="429" y="500"/>
    </contour>
  </outline>
</glyph>
<glyph name="e" format="1">
  <advance width="534"/>
  <unicode hex="0065"/>
  <outline>
    <contour>
      <point x="474" y="325" type="curve" smooth="yes"/>
      <point x="474" y="297"/>
      <point x="471" y="268"/>
      <point x="469" y="248" type="curve"/>
      <point x="94" y="248" type="line"/>
      <point x="92" y="235"/>
      <point x="91" y="222"/>
      <point x="91" y="207" type="curve" smooth="yes"/>
      <point x="91" y="83"/>
      <point x="162" y="28"/>
      <point x="253" y="28" type="curve" smooth="yes"/>
      <point x="303" y="28"/>
      <point x="344" y="43"/>
      <point x="389" y="65" type="curve"/>
      <point x="406" y="30" type="line"/>
      <point x="355" y="4"/>
      <point x="308" y="-11"/>
      <point x="247" y="-11" type="curve" smooth="yes"/>
      <point x="137" y="-11"/>
      <point x="47" y="54"/>
      <point x="47" y="203" type="curve" smooth="yes"/>
      <point x="47" y="402"/>
      <point x="160" y="536"/>
      <point x="293" y="536" type="curve" smooth="yes"/>
      <point x="416" y="536"/>
      <point x="474" y="443"/>
    </contour>
    <contour>
      <point x="429" y="285" type="line"/>
      <point x="430" y="298"/>
      <point x="431" y="311"/>
      <point x="431" y="324" type="curve" smooth="yes"/>
      <point x="431" y="419"/>
      <point x="391" y="497"/>
      <point x="291" y="497" type="curve" smooth="yes"/>
      <point x="206" y="497"/>
      <point x="121" y="417"/>
      <point x="99" y="285" type="curve"/>
    </contour>
  </outline>
</glyph>
<glyph name="g" format="1">
  <advance width="548"/>
  <unicode hex="0067"/>
  <outline>
    <contour>
      <point x="415" y="41" type="line" smooth="yes"/>
      <point x="386" y="-126"/>
      <point x="307" y="-193"/>
      <point x="109" y="-196" type="curve"/>
      <point x="99" y="-159" type="line"/>
      <point x="282" y="-157"/>
      <point x="347" y="-93"/>
      <point x="370" y="40" type="curve" smooth="yes"/>
      <point x="376" y="75" type="line"/>
      <point x="338" y="34"/>
      <point x="278" y="-9"/>
      <point x="208" y="-9" type="curve" smooth="yes"/>
      <point x="110" y="-9"/>
      <point x="39" y="57"/>
      <point x="39" y="189" type="curve" smooth="yes"/>
      <point x="39" y="374"/>
      <point x="125" y="537"/>
      <point x="280" y="537" type="curve" smooth="yes"/>
      <point x="346" y="537"/>
      <point x="404" y="503"/>
      <point x="441" y="443" type="curve"/>
      <point x="455" y="525" type="line"/>
      <point x="500" y="525" type="line"/>
    </contour>
    <contour>
      <point x="83" y="191" type="curve" smooth="yes"/>
      <point x="83" y="88"/>
      <point x="132" y="30"/>
      <point x="220" y="30" type="curve" smooth="yes"/>
      <point x="281" y="30"/>
      <point x="334" y="66"/>
      <point x="384" y="122" type="curve"/>
      <point x="433" y="397" type="line"/>
      <point x="400" y="460"/>
      <point x="348" y="498"/>
      <point x="278" y="498" type="curve" smooth="yes"/>
      <point x="159" y="498"/>
      <point x="83" y="363"/>
    </contour>
  </outline>
</glyph>
<glyph name="h" format="1">
  <advance width="561"/>
  <unicode hex="0068"/>
  <outline>
    <contour>
      <point x="485" y="375" type="curve" smooth="yes"/>
      <point x="485" y="356"/>
      <point x="483" y="334"/>
      <point x="479" y="313" type="curve" smooth="yes"/>
      <point x="424" y="0" type="line"/>
      <point x="379" y="0" type="line"/>
      <point x="434" y="308" type="line" smooth="yes"/>
      <point x="438" y="329"/>
      <point x="439" y="349"/>
      <point x="439" y="367" type="curve" smooth="yes"/>
      <point x="439" y="457"/>
      <point x="389" y="498"/>
      <point x="306" y="498" type="curve" smooth="yes"/>
      <point x="222" y="498"/>
      <point x="153" y="435"/>
      <point x="131" y="314" type="curve" smooth="yes"/>
      <point x="75" y="0" type="line"/>
      <point x="31" y="0" type="line"/>
      <point x="155" y="704" type="line"/>
      <point x="204" y="729" type="line"/>
      <point x="154" y="446" type="line"/>
      <point x="188" y="498"/>
      <point x="237" y="535"/>
      <point x="318" y="535" type="curve" smooth="yes"/>
      <point x="413" y="535"/>
      <point x="485" y="485"/>
    </contour>
  </outline>
</glyph>
<glyph name="i" format="1">
  <advance width="226"/>
  <unicode hex="0069"/>
  <outline>
    <contour>
      <point x="214" y="681" type="curve" smooth="yes"/>
      <point x="214" y="662"/>
      <point x="199" y="647"/>
      <point x="182" y="647" type="curve" smooth="yes"/>
      <point x="161" y="647"/>
      <point x="147" y="662"/>
      <point x="147" y="681" type="curve" smooth="yes"/>
      <point x="147" y="700"/>
      <point x="161" y="715"/>
      <point x="182" y="715" type="curve" smooth="yes"/>
      <point x="199" y="715"/>
      <point x="214" y="700"/>
    </contour>
    <contour>
      <point x="176" y="525" type="line"/>
      <point x="83" y="0" type="line"/>
      <point x="38" y="0" type="line"/>
      <point x="131" y="525" type="line"/>
    </contour>
  </outline>
</glyph>
<glyph name="j" format="1">
  <advance width="226"/>
  <unicode hex="006A"/>
  <outline>
    <contour>
      <point x="214" y="681" type="curve" smooth="yes"/>
      <point x="214" y="662"/>
      <point x="199" y="647"/>
      <point x="182" y="647" type="curve" smooth="yes"/>
      <point x="161" y="647"/>
      <point x="147" y="662"/>
      <point x="147" y="681" type="curve" smooth="yes"/>
      <point x="147" y="700"/>
      <point x="161" y="715"/>
      <point x="182" y="715" type="curve" smooth="yes"/>
      <point x="199" y="715"/>
      <point x="214" y="700"/>
    </contour>
    <contour>
      <point x="176" y="525" type="line"/>
      <point x="82" y="-4" type="line" smooth="yes"/>
      <point x="62" y="-118"/>
      <point x="27" y="-171"/>
      <point x="-79" y="-196" type="curve"/>
      <point x="-92" y="-156" type="line"/>
      <point x="-10" y="-135"/>
      <point x="20" y="-102"/>
      <point x="38" y="-1" type="curve" smooth="yes"/>
      <point x="131" y="525" type="line"/>
    </contour>
  </outline>
</glyph>
<glyph name="k" format="1">
  <advance width="490"/>
  <unicode hex="006B"/>
  <outline>
    <contour>
      <point x="453" y="525" type="line"/>
      <point x="268" y="325" type="line"/>
      <point x="392" y="0" type="line"/>
      <point x="346" y="0" type="line"/>
      <point x="236" y="289" type="line"/>
      <point x="101" y="142" type="line"/>
      <point x="75" y="0" type="line"/>
      <point x="31" y="0" type="line"/>
      <point x="156" y="704" type="line"/>
      <point x="205" y="729" type="line"/>
      <point x="116" y="227" type="line"/>
      <point x="111" y="203" type="line"/>
      <point x="132" y="227" type="line"/>
      <point x="402" y="525" type="line"/>
    </contour>
  </outline>
</glyph>
<glyph name="l" format="1">
  <advance width="226"/>
  <unicode hex="006C"/>
  <outline>
    <contour>
      <point x="212" y="729" type="line"/>
      <point x="83" y="0" type="line"/>
      <point x="38" y="0" type="line"/>
      <point x="163" y="704" type="line"/>
    </contour>
  </outline>
</glyph>
<glyph name="m" format="1">
  <advance width="882"/>
  <unicode hex="006D"/>
  <outline>
    <contour>
      <point x="807" y="379" type="curve" smooth="yes"/>
      <point x="807" y="361"/>
      <point x="805" y="334"/>
      <point x="801" y="313" type="curve" smooth="yes"/>
      <point x="745" y="0" type="line"/>
      <point x="701" y="0" type="line"/>
      <point x="755" y="308" type="line" smooth="yes"/>
      <point x="759" y="329"/>
      <point x="761" y="354"/>
      <point x="761" y="371" type="curve" smooth="yes"/>
      <point x="761" y="457"/>
      <point x="714" y="498"/>
      <point x="634" y="498" type="curve" smooth="yes"/>
      <point x="551" y="498"/>
      <point x="487" y="433"/>
      <point x="466" y="314" type="curve" smooth="yes"/>
      <point x="411" y="0" type="line"/>
      <point x="366" y="0" type="line"/>
      <point x="421" y="308" type="line" smooth="yes"/>
      <point x="425" y="329"/>
      <point x="426" y="354"/>
      <point x="426" y="371" type="curve" smooth="yes"/>
      <point x="426" y="457"/>
      <point x="380" y="498"/>
      <point x="300" y="498" type="curve" smooth="yes"/>
      <point x="217" y="498"/>
      <point x="152" y="433"/>
      <point x="131" y="314" type="curve" smooth="yes"/>
      <point x="75" y="0" type="line"/>
      <point x="31" y="0" type="line"/>
      <point x="123" y="525" type="line"/>
      <point x="167" y="525" type="line"/>
      <point x="154" y="446" type="line"/>
      <point x="187" y="498"/>
      <point x="233" y="535"/>
      <point x="312" y="535" type="curve" smooth="yes"/>
      <point x="394" y="535"/>
      <point x="449" y="498"/>
      <point x="463" y="419" type="curve"/>
      <point x="493" y="474"/>
      <point x="544" y="535"/>
      <point x="645" y="535" type="curve" smooth="yes"/>
      <point x="738" y="535"/>
      <point x="807" y="485"/>
    </contour>
  </outline>
</glyph>
<glyph name="o" format="1">
  <advance width="563"/>
  <unicode hex="006F"/>
  <outline>
    <contour>
      <point x="47" y="210" type="curve" smooth="yes"/>
      <point x="47" y="403"/>
      <point x="157" y="535"/>
      <point x="299" y="535" type="curve" smooth="yes"/>
      <point x="412" y="535"/>
      <point x="506" y="463"/>
      <point x="506" y="315" type="curve" smooth="yes"/>
      <point x="506" y="123"/>
      <point x="395" y="-10"/>
      <point x="250" y="-10" type="curve" smooth="yes"/>
      <point x="137" y="-10"/>
      <point x="47" y="63"/>
    </contour>
    <contour>
      <point x="461" y="315" type="curve" smooth="yes"/>
      <point x="461" y="431"/>
      <point x="389" y="496"/>
      <point x="300" y="496" type="curve" smooth="yes"/>
      <point x="180" y="496"/>
      <point x="92" y="374"/>
      <point x="92" y="211" type="curve" smooth="yes"/>
      <point x="92" y="96"/>
      <point x="160" y="29"/>
      <point x="249" y="29" type="curve" smooth="yes"/>
      <point x="372" y="29"/>
      <point x="461" y="153"/>
    </contour>
  </outline>
</glyph>
<glyph name="q" format="1">
  <advance width="549"/>
  <unicode hex="0071"/>
  <outline>
    <contour>
      <point x="39" y="189" type="curve" smooth="yes"/>
      <point x="39" y="374"/>
      <point x="125" y="537"/>
      <point x="280" y="537" type="curve" smooth="yes"/>
      <point x="346" y="537"/>
      <point x="404" y="503"/>
      <point x="441" y="443" type="curve"/>
      <point x="455" y="525" type="line"/>
      <point x="501" y="525" type="line"/>
      <point x="379" y="-162" type="line"/>
      <point x="330" y="-190" type="line"/>
      <point x="376" y="75" type="line"/>
      <point x="338" y="34"/>
      <point x="278" y="-9"/>
      <point x="208" y="-9" type="curve" smooth="yes"/>
      <point x="110" y="-9"/>
      <point x="39" y="57"/>
    </contour>
    <contour>
      <point x="83" y="191" type="curve" smooth="yes"/>
      <point x="83" y="88"/>
      <point x="132" y="30"/>
      <point x="220" y="30" type="curve" smooth="yes"/>
      <point x="281" y="30"/>
      <point x="334" y="66"/>
      <point x="384" y="122" type="curve"/>
      <point x="433" y="397" type="line"/>
      <point x="400" y="460"/>
      <point x="348" y="498"/>
      <point x="278" y="498" type="curve" smooth="yes"/>
      <point x="159" y="498"/>
      <point x="83" y="363"/>
    </contour>
  </outline>
</glyph>
<glyph name="r" format="1">
  <advance width="393"/>
  <unicode hex="0072"/>
  <outline>
    <contour>
      <point x="402" y="520" type="curve"/>
      <point x="387" y="478" type="line"/>
      <point x="371" y="485"/>
      <point x="342" y="493"/>
      <point x="313" y="493" type="curve" smooth="yes"/>
      <point x="227" y="493"/>
      <point x="155" y="451"/>
      <point x="131" y="317" type="curve" smooth="yes"/>
      <point x="75" y="0" type="line"/>
      <point x="31" y="0" type="line"/>
      <point x="123" y="525" type="line"/>
      <point x="167" y="525" type="line"/>
      <point x="154" y="445" type="line"/>
      <point x="187" y="498"/>
      <point x="239" y="535"/>
      <point x="317" y="535" type="curve" smooth="yes"/>
      <point x="355" y="535"/>
      <point x="381" y="529"/>
    </contour>
  </outline>
</glyph>
<glyph name="s" format="1">
  <advance width="445"/>
  <unicode hex="0073"/>
  <outline>
    <contour>
      <point x="374" y="442" type="line"/>
      <point x="342" y="473"/>
      <point x="297" y="497"/>
      <point x="235" y="497" type="curve" smooth="yes"/>
      <point x="163" y="497"/>
      <point x="123" y="458"/>
      <point x="123" y="405" type="curve" smooth="yes"/>
      <point x="123" y="359"/>
      <point x="149" y="333"/>
      <point x="231" y="290" type="curve" smooth="yes"/>
      <point x="324" y="242"/>
      <point x="359" y="207"/>
      <point x="359" y="140" type="curve" smooth="yes"/>
      <point x="359" y="39"/>
      <point x="281" y="-11"/>
      <point x="184" y="-11" type="curve" smooth="yes"/>
      <point x="106" y="-11"/>
      <point x="46" y="18"/>
      <point x="6" y="58" type="curve"/>
      <point x="32" y="90" type="line"/>
      <point x="70" y="54"/>
      <point x="118" y="27"/>
      <point x="184" y="27" type="curve" smooth="yes"/>
      <point x="255" y="27"/>
      <point x="316" y="63"/>
      <point x="316" y="138" type="curve" smooth="yes"/>
      <point x="316" y="191"/>
      <point x="284" y="214"/>
      <point x="211" y="252" type="curve" smooth="yes"/>
      <point x="106" y="306"/>
      <point x="80" y="345"/>
      <point x="80" y="403" type="curve" smooth="yes"/>
      <point x="80" y="478"/>
      <point x="133" y="535"/>
      <point x="235" y="535" type="curve" smooth="yes"/>
      <point x="311" y="535"/>
      <point x="364" y="511"/>
      <point x="401" y="473" type="curve"/>
    </contour>
  </outline>
</glyph>
<glyph name="t" format="1">
  <advance width="346"/>
  <unicode hex="0074"/>
  <outline>
    <contour>
      <point x="325" y="525" type="line"/>
      <point x="318" y="488" type="line"/>
      <point x="181" y="488" type="line"/>
      <point x="113" y="102" type="line" smooth="yes"/>
      <point x="106" y="61"/>
      <point x="112" y="30"/>
      <point x="167" y="30" type="curve" smooth="yes"/>
      <point x="198" y="30"/>
      <point x="227" y="37"/>
      <point x="248" y="46" type="curve"/>
      <point x="239" y="5" type="line"/>
      <point x="223" y="-1"/>
      <point x="189" y="-9"/>
      <point x="159" y="-9" type="curve" smooth="yes"/>
      <point x="81" y="-9"/>
      <point x="58" y="37"/>
      <point x="69" y="102" type="curve" smooth="yes"/>
      <point x="137" y="488" type="line"/>
      <point x="69" y="488" type="line"/>
      <point x="76" y="525" type="line"/>
      <point x="144" y="525" type="line"/>
      <point x="175" y="704" type="line"/>
      <point x="224" y="728" type="line"/>
      <point x="188" y="525" type="line"/>
    </contour>
  </outline>
</glyph>
<glyph name="u" format="1">
  <advance width="561"/>
  <unicode hex="0075"/>
  <outline>
    <contour>
      <point x="512" y="525" type="line"/>
      <point x="420" y="0" type="line"/>
      <point x="375" y="0" type="line"/>
      <point x="388" y="79" type="line"/>
      <point x="355" y="27"/>
      <point x="306" y="-10"/>
      <point x="225" y="-10" type="curve" smooth="yes"/>
      <point x="130" y="-10"/>
      <point x="58" y="40"/>
      <point x="58" y="150" type="curve" smooth="yes"/>
      <point x="58" y="169"/>
      <point x="60" y="191"/>
      <point x="64" y="212" type="curve" smooth="yes"/>
      <point x="119" y="525" type="line"/>
      <point x="164" y="525" type="line"/>
      <point x="109" y="217" type="line" smooth="yes"/>
      <point x="105" y="196"/>
      <point x="104" y="176"/>
      <point x="104" y="158" type="curve" smooth="yes"/>
      <point x="104" y="68"/>
      <point x="154" y="27"/>
      <point x="236" y="27" type="curve" smooth="yes"/>
      <point x="320" y="27"/>
      <point x="391" y="90"/>
      <point x="412" y="211" type="curve" smooth="yes"/>
      <point x="467" y="525" type="line"/>
    </contour>
  </outline>
</glyph>
<glyph name="v" format="1">
  <advance width="505"/>
  <unicode hex="0076"/>
  <outline>
    <contour>
      <point x="501" y="525" type="line"/>
      <point x="221" y="-1" type="line"/>
      <point x="179" y="-1" type="line"/>
      <point x="83" y="525" type="line"/>
      <point x="130" y="525" type="line"/>
      <point x="208" y="59" type="line"/>
      <point x="454" y="525" type="line"/>
    </contour>
  </outline>
</glyph>
<glyph name="w" format="1">
  <advance width="716"/>
  <unicode hex="0077"/>
  <outline>
    <contour>
      <point x="708" y="525" type="line"/>
      <point x="478" y="-1" type="line"/>
      <point x="436" y="-1" type="line"/>
      <point x="387" y="462" type="line"/>
      <point x="174" y="-1" type="line"/>
      <point x="134" y="-1" type="line"/>
      <point x="88" y="525" type="line"/>
      <point x="132" y="525" type="line"/>
      <point x="166" y="65" type="line"/>
      <point x="377" y="526" type="line"/>
      <point x="418" y="526" type="line"/>
      <point x="468" y="72" type="line"/>
      <point x="663" y="525" type="line"/>
    </contour>
  </outline>
</glyph>
<glyph name="x" format="1">
  <advance width="488"/>
  <unicode hex="0078"/>
  <outline>
    <contour>
      <point x="215" y="276" type="line"/>
      <point x="109" y="525" type="line"/>
      <point x="155" y="525" type="line"/>
      <point x="245" y="314" type="line"/>
      <point x="407" y="525" type="line"/>
      <point x="456" y="525" type="line"/>
      <point x="262" y="273" type="line"/>
      <point x="379" y="0" type="line"/>
      <point x="333" y="0" type="line"/>
      <point x="232" y="235" type="line"/>
      <point x="52" y="0" type="line"/>
      <point x="2" y="0" type="line"/>
    </contour>
  </outline>
</glyph>
<glyph name="y" format="1">
  <advance width="510"/>
  <unicode hex="0079"/>
  <outline>
    <contour>
      <point x="177" y="5" type="line"/>
      <point x="81" y="525" type="line"/>
      <point x="126" y="525" type="line"/>
      <point x="209" y="63" type="line"/>
      <point x="459" y="525" type="line"/>
      <point x="504" y="525" type="line"/>
      <point x="119" y="-185" type="line"/>
      <point x="74" y="-185" type="line"/>
    </contour>
  </outline>
</glyph>
<glyph name="z" format="1">
  <advance width="487"/>
  <unicode hex="007A"/>
  <outline>
    <contour>
      <point x="457" y="525" type="line"/>
      <point x="452" y="491" type="line"/>
      <point x="67" y="37" type="line"/>
      <point x="376" y="37" type="line"/>
      <point x="370" y="0" type="line"/>
      <point x="7" y="0" type="line"/>
      <point x="13" y="34" type="line"/>
      <point x="397" y="488" type="line"/>
      <point x="114" y="488" type="line"/>
      <point x="121" y="525" type="line"/>
    </contour>
  </outline>
</glyph>
<glyph name="braceleft" format="1">
  <advance width="376"/>
  <unicode hex="007B"/>
  <outline>
    <contour>
      <point x="392" y="703" type="curve"/>
      <point x="385" y="666" type="line"/>
      <point x="290" y="659"/>
      <point x="247" y="631"/>
      <point x="226" y="517" type="curve" smooth="yes"/>
      <point x="205" y="402" type="line" smooth="yes"/>
      <point x="194" y="339"/>
      <point x="176" y="308"/>
      <point x="128" y="294" type="curve"/>
      <point x="167" y="279"/>
      <point x="178" y="249"/>
      <point x="167" y="185" type="curve" smooth="yes"/>
      <point x="149" y="82" type="line" smooth="yes"/>
      <point x="131" y="-21"/>
      <point x="167" y="-62"/>
      <point x="254" y="-72" type="curve"/>
      <point x="248" y="-109" type="line"/>
      <point x="137" y="-101"/>
      <point x="84" y="-48"/>
      <point x="107" y="90" type="curve" smooth="yes"/>
      <point x="126" y="204" type="line" smooth="yes"/>
      <point x="134" y="249"/>
      <point x="123" y="275"/>
      <point x="76" y="275" type="curve" smooth="yes"/>
      <point x="48" y="275" type="line"/>
      <point x="55" y="317" type="line"/>
      <point x="84" y="317" type="line" smooth="yes"/>
      <point x="131" y="317"/>
      <point x="150" y="341"/>
      <point x="159" y="388" type="curve" smooth="yes"/>
      <point x="183" y="518" type="line" smooth="yes"/>
      <point x="210" y="662"/>
      <point x="270" y="700"/>
    </contour>
  </outline>
</glyph>
<glyph name="bar" format="1">
  <advance width="291"/>
  <unicode hex="007C"/>
  <outline>
    <contour>
      <point x="255" y="800" type="line"/>
      <point x="81" y="-185" type="line"/>
      <point x="39" y="-185" type="line"/>
      <point x="213" y="800" type="line"/>
    </contour>
  </outline>
</glyph>
<glyph name="braceright" format="1">
  <advance width="376"/>
  <unicode hex="007D"/>
  <outline>
    <contour>
      <point x="323" y="319" type="line"/>
      <point x="316" y="277" type="line"/>
      <point x="287" y="277" type="line" smooth="yes"/>
      <point x="241" y="277"/>
      <point x="221" y="253"/>
      <point x="212" y="206" type="curve" smooth="yes"/>
      <point x="188" y="76" type="line" smooth="yes"/>
      <point x="161" y="-68"/>
      <point x="101" y="-106"/>
      <point x="-21" y="-109" type="curve"/>
      <point x="-14" y="-72" type="line"/>
      <point x="81" y="-65"/>
      <point x="124" y="-37"/>
      <point x="145" y="77" type="curve" smooth="yes"/>
      <point x="166" y="192" type="line" smooth="yes"/>
      <point x="177" y="255"/>
      <point x="195" y="286"/>
      <point x="243" y="300" type="curve"/>
      <point x="204" y="315"/>
      <point x="193" y="345"/>
      <point x="204" y="409" type="curve" smooth="yes"/>
      <point x="222" y="512" type="line" smooth="yes"/>
      <point x="240" y="615"/>
      <point x="204" y="656"/>
      <point x="117" y="666" type="curve"/>
      <point x="123" y="703" type="line"/>
      <point x="234" y="695"/>
      <point x="287" y="642"/>
      <point x="264" y="504" type="curve" smooth="yes"/>
      <point x="245" y="390" type="line" smooth="yes"/>
      <point x="237" y="345"/>
      <point x="248" y="319"/>
      <point x="295" y="319" type="curve" smooth="yes"/>
    </contour>
  </outline>
</glyph>
<glyph name="asciitilde" format="1">
  <advance width="538"/>
  <unicode hex="007E"/>
  <outline>
    <contour>
      <point x="487" y="413" type="line"/>
      <point x="456" y="344"/>
      <point x="422" y="311"/>
      <point x="366" y="311" type="curve" smooth="yes"/>
      <point x="329" y="311"/>
      <point x="301" y="328"/>
      <point x="272" y="347" type="curve" smooth="yes"/>
      <point x="237" y="369"/>
      <point x="211" y="385"/>
      <point x="184" y="385" type="curve" smooth="yes"/>
      <point x="148" y="385"/>
      <point x="127" y="364"/>
      <point x="102" y="311" type="curve"/>
      <point x="62" y="329" type="line"/>
      <point x="93" y="398"/>
      <point x="127" y="431"/>
      <point x="184" y="431" type="curve" smooth="yes"/>
      <point x="221" y="431"/>
      <point x="248" y="415"/>
      <point x="280" y="394" type="curve" smooth="yes"/>
      <point x="313" y="373"/>
      <point x="339" y="357"/>
      <point x="366" y="357" type="curve" smooth="yes"/>
      <point x="402" y="357"/>
      <point x="422" y="377"/>
      <point x="448" y="431" type="curve"/>
    </contour>
  </outline>
</glyph>
<glyph name="exclamdown" format="1">
  <advance width="244"/>
  <unicode hex="00A1"/>
  <outline>
    <contour>
      <point x="222" y="667" type="curve" smooth="yes"/>
      <point x="222" y="646"/>
      <point x="204" y="626"/>
      <point x="183" y="626" type="curve" smooth="yes"/>
      <point x="162" y="626"/>
      <point x="143" y="646"/>
      <point x="143" y="667" type="curve" smooth="yes"/>
      <point x="143" y="689"/>
      <point x="162" y="706"/>
      <point x="183" y="706" type="curve" smooth="yes"/>
      <point x="204" y="706"/>
      <point x="222" y="689"/>
    </contour>
    <contour>
      <point x="174" y="537" type="line"/>
      <point x="147" y="329" type="line"/>
      <point x="89" y="0" type="line"/>
      <point x="44" y="0" type="line"/>
      <point x="102" y="329" type="line"/>
      <point x="149" y="537" type="line"/>
    </contour>
  </outline>
</glyph>
<glyph name="cent" format="1">
  <advance width="488"/>
  <unicode hex="00A2"/>
  <outline>
    <contour>
      <point x="308" y="630" type="curve"/>
      <point x="323" y="716" type="line"/>
      <point x="368" y="716" type="line"/>
      <point x="352" y="628" type="line"/>
      <point x="413" y="619"/>
      <point x="451" y="590"/>
      <point x="477" y="562" type="curve"/>
      <point x="447" y="533" type="line"/>
      <point x="421" y="562"/>
      <point x="379" y="591"/>
      <point x="314" y="591" type="curve" smooth="yes"/>
      <point x="203" y="591"/>
      <point x="109" y="476"/>
      <point x="109" y="303" type="curve" smooth="yes"/>
      <point x="109" y="183"/>
      <point x="173" y="123"/>
      <point x="265" y="123" type="curve" smooth="yes"/>
      <point x="313" y="123"/>
      <point x="353" y="140"/>
      <point x="389" y="170" type="curve"/>
      <point x="412" y="140" type="line"/>
      <point x="368" y="102"/>
      <point x="318" y="84"/>
      <point x="259" y="84" type="curve" smooth="yes"/>
      <point x="258" y="84"/>
      <point x="258" y="84"/>
      <point x="257" y="84" type="curve"/>
      <point x="240" y="-11" type="line"/>
      <point x="196" y="-11" type="line"/>
      <point x="213" y="88" type="line"/>
      <point x="122" y="106"/>
      <point x="64" y="179"/>
      <point x="64" y="302" type="curve" smooth="yes"/>
      <point x="64" y="501"/>
      <point x="176" y="625"/>
    </contour>
  </outline>
</glyph>
<glyph name="sterling" format="1">
  <advance width="578"/>
  <unicode hex="00A3"/>
  <outline>
    <contour>
      <point x="223" y="306" type="line"/>
      <point x="223" y="304"/>
      <point x="223" y="301"/>
      <point x="223" y="299" type="curve" smooth="yes"/>
      <point x="223" y="219"/>
      <point x="176" y="129"/>
      <point x="87" y="42" type="curve"/>
      <point x="475" y="42" type="line"/>
      <point x="468" y="0" type="line"/>
      <point x="22" y="0" type="line"/>
      <point x="30" y="42" type="line"/>
      <point x="141" y="151"/>
      <point x="177" y="231"/>
      <point x="177" y="299" type="curve" smooth="yes"/>
      <point x="177" y="301"/>
      <point x="177" y="304"/>
      <point x="177" y="306" type="curve"/>
      <point x="79" y="306" type="line"/>
      <point x="85" y="347" type="line"/>
      <point x="175" y="347" type="line"/>
      <point x="167" y="425"/>
      <point x="143" y="462"/>
      <point x="143" y="527" type="curve" smooth="yes"/>
      <point x="143" y="632"/>
      <point x="220" y="712"/>
      <point x="358" y="712" type="curve" smooth="yes"/>
      <point x="449" y="712"/>
      <point x="517" y="685"/>
      <point x="569" y="626" type="curve"/>
      <point x="537" y="594" type="line"/>
      <point x="493" y="643"/>
      <point x="435" y="671"/>
      <point x="358" y="671" type="curve" smooth="yes"/>
      <point x="251" y="671"/>
      <point x="189" y="607"/>
      <point x="189" y="527" type="curve" smooth="yes"/>
      <point x="189" y="461"/>
      <point x="213" y="425"/>
      <point x="221" y="347" type="curve"/>
      <point x="385" y="347" type="line"/>
      <point x="379" y="306" type="line"/>
    </contour>
  </outline>
</glyph>
<glyph name="yen" format="1">
  <advance width="606"/>
  <unicode hex="00A5"/>
  <outline>
    <contour>
      <point x="303" y="187" type="line"/>
      <point x="453" y="187" type="line"/>
      <point x="445" y="146" type="line"/>
      <point x="296" y="146" type="line"/>
      <point x="270" y="0" type="line"/>
      <point x="224" y="0" type="line"/>
      <point x="250" y="146" type="line"/>
      <point x="101" y="146" type="line"/>
      <point x="108" y="187" type="line"/>
      <point x="257" y="187" type="line"/>
      <point x="275" y="288" type="line"/>
      <point x="117" y="700" type="line"/>
      <point x="167" y="700" type="line"/>
      <point x="306" y="331" type="line"/>
      <point x="574" y="700" type="line"/>
      <point x="627" y="700" type="line"/>
      <point x="320" y="285" type="line"/>
    </contour>
  </outline>
</glyph>
<glyph name="section" format="1">
  <advance width="607"/>
  <unicode hex="00A7"/>
  <outline>
    <contour>
      <point x="228" y="460" type="curve"/>
      <point x="186" y="490"/>
      <point x="174" y="522"/>
      <point x="174" y="567" type="curve" smooth="yes"/>
      <point x="174" y="646"/>
      <point x="231" y="709"/>
      <point x="350" y="709" type="curve" smooth="yes"/>
      <point x="440" y="709"/>
      <point x="500" y="681"/>
      <point x="548" y="637" type="curve"/>
      <point x="518" y="603" type="line"/>
      <point x="476" y="639"/>
      <point x="427" y="668"/>
      <point x="351" y="668" type="curve" smooth="yes"/>
      <point x="266" y="668"/>
      <point x="220" y="625"/>
      <point x="220" y="568" type="curve" smooth="yes"/>
      <point x="220" y="513"/>
      <point x="259" y="481"/>
      <point x="360" y="445" type="curve" smooth="yes"/>
      <point x="510" y="392"/>
      <point x="546" y="350"/>
      <point x="546" y="277" type="curve" smooth="yes"/>
      <point x="546" y="183"/>
      <point x="468" y="119"/>
      <point x="371" y="85" type="curve"/>
      <point x="413" y="55"/>
      <point x="425" y="23"/>
      <point x="425" y="-22" type="curve" smooth="yes"/>
      <point x="425" y="-101"/>
      <point x="368" y="-164"/>
      <point x="249" y="-164" type="curve" smooth="yes"/>
      <point x="159" y="-164"/>
      <point x="99" y="-136"/>
      <point x="51" y="-92" type="curve"/>
      <point x="81" y="-58" type="line"/>
      <point x="123" y="-94"/>
      <point x="172" y="-123"/>
      <point x="248" y="-123" type="curve" smooth="yes"/>
      <point x="333" y="-123"/>
      <point x="379" y="-80"/>
      <point x="379" y="-23" type="curve" smooth="yes"/>
      <point x="379" y="32"/>
      <point x="340" y="64"/>
      <point x="239" y="100" type="curve" smooth="yes"/>
      <point x="89" y="153"/>
      <point x="53" y="195"/>
      <point x="53" y="268" type="curve" smooth="yes"/>
      <point x="53" y="362"/>
      <point x="131" y="426"/>
    </contour>
    <contour>
      <point x="329" y="110" type="curve"/>
      <point x="437" y="145"/>
      <point x="500" y="205"/>
      <point x="500" y="276" type="curve" smooth="yes"/>
      <point x="500" y="336"/>
      <point x="455" y="363"/>
      <point x="342" y="405" type="curve" smooth="yes"/>
      <point x="314" y="415"/>
      <point x="290" y="425"/>
      <point x="270" y="435" type="curve"/>
      <point x="162" y="400"/>
      <point x="99" y="340"/>
      <point x="99" y="269" type="curve" smooth="yes"/>
      <point x="99" y="209"/>
      <point x="144" y="182"/>
      <point x="257" y="140" type="curve" smooth="yes"/>
      <point x="285" y="130"/>
      <point x="309" y="120"/>
    </contour>
  </outline>
</glyph>
<glyph name="dieresis" format="1">
  <advance width="500"/>
  <unicode hex="00A8"/>
  <outline>
    <contour>
      <point x="443" y="657" type="curve" smooth="yes"/>
      <point x="443" y="637"/>
      <point x="426" y="621"/>
      <point x="407" y="621" type="curve" smooth="yes"/>
      <point x="387" y="621"/>
      <point x="370" y="637"/>
      <point x="370" y="657" type="curve" smooth="yes"/>
      <point x="370" y="677"/>
      <point x="387" y="693"/>
      <point x="407" y="693" type="curve" smooth="yes"/>
      <point x="426" y="693"/>
      <point x="443" y="677"/>
    </contour>
    <contour>
      <point x="249" y="657" type="curve" smooth="yes"/>
      <point x="249" y="637"/>
      <point x="232" y="621"/>
      <point x="214" y="621" type="curve" smooth="yes"/>
      <point x="193" y="621"/>
      <point x="176" y="637"/>
      <point x="176" y="657" type="curve" smooth="yes"/>
      <point x="176" y="677"/>
      <point x="193" y="693"/>
      <point x="214" y="693" type="curve" smooth="yes"/>
      <point x="232" y="693"/>
      <point x="249" y="677"/>
    </contour>
  </outline>
</glyph>
<glyph name="copyright" format="1">
  <advance width="836"/>
  <unicode hex="00A9"/>
  <outline>
    <contour>
      <point x="789" y="350" type="curve" smooth="yes"/>
      <point x="789" y="138"/>
      <point x="635" y="-11"/>
      <point x="428" y="-11" type="curve" smooth="yes"/>
      <point x="221" y="-11"/>
      <point x="67" y="138"/>
      <point x="67" y="350" type="curve" smooth="yes"/>
      <point x="67" y="562"/>
      <point x="221" y="711"/>
      <point x="428" y="711" type="curve" smooth="yes"/>
      <point x="635" y="711"/>
      <point x="789" y="562"/>
    </contour>
    <contour>
      <point x="759" y="350" type="curve" smooth="yes"/>
      <point x="759" y="545"/>
      <point x="618" y="683"/>
      <point x="428" y="683" type="curve" smooth="yes"/>
      <point x="238" y="683"/>
      <point x="97" y="545"/>
      <point x="97" y="350" type="curve" smooth="yes"/>
      <point x="97" y="155"/>
      <point x="238" y="17"/>
      <point x="428" y="17" type="curve" smooth="yes"/>
      <point x="618" y="17"/>
      <point x="759" y="155"/>
    </contour>
    <contour>
      <point x="552" y="195" type="line"/>
      <point x="520" y="158"/>
      <point x="479" y="138"/>
      <point x="428" y="138" type="curve" smooth="yes"/>
      <point x="329" y="138"/>
      <point x="261" y="225"/>
      <point x="261" y="350" type="curve" smooth="yes"/>
      <point x="261" y="476"/>
      <point x="331" y="562"/>
      <point x="429" y="562" type="curve" smooth="yes"/>
      <point x="482" y="562"/>
      <point x="519" y="544"/>
      <point x="548" y="510" type="curve"/>
      <point x="524" y="489" type="line"/>
      <point x="498" y="519"/>
      <point x="472" y="532"/>
      <point x="429" y="532" type="curve" smooth="yes"/>
      <point x="350" y="532"/>
      <point x="293" y="460"/>
      <point x="293" y="351" type="curve" smooth="yes"/>
      <point x="293" y="242"/>
      <point x="350" y="168"/>
      <point x="429" y="168" type="curve" smooth="yes"/>
      <point x="469" y="168"/>
      <point x="502" y="184"/>
      <point x="530" y="217" type="curve"/>
    </contour>
  </outline>
</glyph>
<glyph name="ordfeminine" format="1">
  <advance width="453"/>
  <unicode hex="00AA"/>
  <outline>
    <contour>
      <point x="424" y="606" type="curve" smooth="yes"/>
      <point x="424" y="594"/>
      <point x="422" y="580"/>
      <point x="420" y="567" type="curve" smooth="yes"/>
      <point x="370" y="282" type="line"/>
      <point x="331" y="282" type="line"/>
      <point x="340" y="338" type="line"/>
      <point x="306" y="304"/>
      <point x="257" y="273"/>
      <point x="202" y="273" type="curve" smooth="yes"/>
      <point x="130" y="273"/>
      <point x="71" y="308"/>
      <point x="71" y="390" type="curve" smooth="yes"/>
      <point x="71" y="487"/>
      <point x="141" y="540"/>
      <point x="241" y="540" type="curve" smooth="yes"/>
      <point x="298" y="540"/>
      <point x="340" y="524"/>
      <point x="370" y="507" type="curve"/>
      <point x="381" y="565" type="line" smooth="yes"/>
      <point x="383" y="577"/>
      <point x="384" y="591"/>
      <point x="384" y="601" type="curve" smooth="yes"/>
      <point x="383" y="656"/>
      <point x="352" y="678"/>
      <point x="288" y="678" type="curve" smooth="yes"/>
      <point x="242" y="678"/>
      <point x="199" y="663"/>
      <point x="170" y="650" type="curve"/>
      <point x="157" y="681" type="line"/>
      <point x="188" y="695"/>
      <point x="239" y="712"/>
      <point x="290" y="712" type="curve" smooth="yes"/>
      <point x="377" y="712"/>
      <point x="424" y="679"/>
    </contour>
    <contour>
      <point x="364" y="474" type="line"/>
      <point x="335" y="492"/>
      <point x="293" y="508"/>
      <point x="240" y="508" type="curve" smooth="yes"/>
      <point x="161" y="508"/>
      <point x="110" y="463"/>
      <point x="110" y="393" type="curve" smooth="yes"/>
      <point x="110" y="334"/>
      <point x="149" y="305"/>
      <point x="205" y="305" type="curve" smooth="yes"/>
      <point x="261" y="305"/>
      <point x="314" y="342"/>
      <point x="348" y="381" type="curve"/>
    </contour>
  </outline>
</glyph>
<glyph name="guillemotleft" format="1">
  <advance width="556"/>
  <unicode hex="00AB"/>
  <outline>
    <contour>
      <point x="542" y="525" type="line"/>
      <point x="292" y="260" type="line"/>
      <point x="447" y="0" type="line"/>
      <point x="399" y="0" type="line"/>
      <point x="242" y="261" type="line"/>
      <point x="491" y="525" type="line"/>
    </contour>
    <contour>
      <point x="329" y="525" type="line"/>
      <point x="79" y="260" type="line"/>
      <point x="234" y="0" type="line"/>
      <point x="186" y="0" type="line"/>
      <point x="29" y="261" type="line"/>
      <point x="278" y="525" type="line"/>
    </contour>
  </outline>
</glyph>
<glyph name="degree" format="1">
  <advance width="459"/>
  <unicode hex="00B0"/>
  <outline>
    <contour>
      <point x="442" y="537" type="curve" smooth="yes"/>
      <point x="442" y="436"/>
      <point x="370" y="360"/>
      <point x="271" y="360" type="curve" smooth="yes"/>
      <point x="172" y="360"/>
      <point x="100" y="436"/>
      <point x="100" y="537" type="curve" smooth="yes"/>
      <point x="100" y="634"/>
      <point x="172" y="711"/>
      <point x="271" y="711" type="curve" smooth="yes"/>
      <point x="370" y="711"/>
      <point x="442" y="634"/>
    </contour>
    <contour>
      <point x="403" y="537" type="curve" smooth="yes"/>
      <point x="403" y="615"/>
      <point x="349" y="674"/>
      <point x="271" y="674" type="curve" smooth="yes"/>
      <point x="193" y="674"/>
      <point x="139" y="615"/>
      <point x="139" y="537" type="curve" smooth="yes"/>
      <point x="139" y="455"/>
      <point x="193" y="397"/>
      <point x="271" y="397" type="curve" smooth="yes"/>
      <point x="349" y="397"/>
      <point x="403" y="455"/>
    </contour>
  </outline>
</glyph>
<glyph name="acute" format="1">
  <advance width="500"/>
  <unicode hex="00B4"/>
  <outline>
    <contour>
      <point x="434" y="742" type="line"/>
      <point x="278" y="595" type="line"/>
      <point x="238" y="596" type="line"/>
      <point x="367" y="742" type="line"/>
    </contour>
  </outline>
</glyph>
<glyph name="paragraph" format="1">
  <advance width="653"/>
  <unicode hex="00B6"/>
  <outline>
    <contour>
      <point x="467" y="-185" type="line"/>
      <point x="422" y="-185" type="line"/>
      <point x="571" y="660" type="line"/>
      <point x="462" y="660" type="line"/>
      <point x="313" y="-185" type="line"/>
      <point x="267" y="-185" type="line"/>
      <point x="346" y="262" type="line"/>
      <point x="288" y="262" type="line" smooth="yes"/>
      <point x="174" y="262"/>
      <point x="77" y="318"/>
      <point x="77" y="454" type="curve" smooth="yes"/>
      <point x="77" y="639"/>
      <point x="220" y="700"/>
      <point x="354" y="700" type="curve" smooth="yes"/>
      <point x="623" y="700" type="line"/>
    </contour>
    <contour>
      <point x="353" y="302" type="line"/>
      <point x="416" y="660" type="line"/>
      <point x="352" y="660" type="line" smooth="yes"/>
      <point x="226" y="660"/>
      <point x="121" y="595"/>
      <point x="121" y="457" type="curve" smooth="yes"/>
      <point x="121" y="378"/>
      <point x="164" y="302"/>
      <point x="288" y="302" type="curve" smooth="yes"/>
    </contour>
  </outline>
</glyph>
<glyph name="periodcentered" format="1">
  <advance width="211"/>
  <unicode hex="00B7"/>
  <outline>
    <contour>
      <point x="160" y="376" type="curve" smooth="yes"/>
      <point x="160" y="353"/>
      <point x="141" y="335"/>
      <point x="119" y="335" type="curve" smooth="yes"/>
      <point x="97" y="335"/>
      <point x="79" y="353"/>
      <point x="79" y="376" type="curve" smooth="yes"/>
      <point x="79" y="398"/>
      <point x="97" y="418"/>
      <point x="119" y="418" type="curve" smooth="yes"/>
      <point x="141" y="418"/>
      <point x="160" y="398"/>
    </contour>
  </outline>
</glyph>
<glyph name="cedilla" format="1">
  <advance width="500"/>
  <unicode hex="00B8"/>
  <outline>
    <contour>
      <point x="290" y="-96" type="curve" smooth="yes"/>
      <point x="290" y="-152"/>
      <point x="242" y="-178"/>
      <point x="186" y="-178" type="curve" smooth="yes"/>
      <point x="139" y="-178"/>
      <point x="102" y="-165"/>
      <point x="69" y="-137" type="curve"/>
      <point x="86" y="-118" type="line"/>
      <point x="114" y="-141"/>
      <point x="147" y="-151"/>
      <point x="183" y="-151" type="curve" smooth="yes"/>
      <point x="224" y="-151"/>
      <point x="254" y="-133"/>
      <point x="254" y="-100" type="curve" smooth="yes"/>
      <point x="254" y="-77"/>
      <point x="239" y="-65"/>
      <point x="217" y="-65" type="curve" smooth="yes"/>
      <point x="197" y="-65"/>
      <point x="179" y="-72"/>
      <point x="164" y="-84" type="curve"/>
      <point x="142" y="-75" type="line"/>
      <point x="183" y="0" type="line"/>
      <point x="213" y="0" type="line"/>
      <point x="183" y="-52" type="line"/>
      <point x="196" y="-44"/>
      <point x="211" y="-40"/>
      <point x="230" y="-40" type="curve" smooth="yes"/>
      <point x="262" y="-40"/>
      <point x="290" y="-57"/>
    </contour>
  </outline>
</glyph>
<glyph name="ordmasculine" format="1">
  <advance width="478"/>
  <unicode hex="00BA"/>
  <outline>
    <contour>
      <point x="77" y="454" type="curve" smooth="yes"/>
      <point x="77" y="606"/>
      <point x="170" y="711"/>
      <point x="284" y="711" type="curve" smooth="yes"/>
      <point x="383" y="711"/>
      <point x="449" y="644"/>
      <point x="449" y="533" type="curve" smooth="yes"/>
      <point x="449" y="380"/>
      <point x="355" y="274"/>
      <point x="242" y="274" type="curve" smooth="yes"/>
      <point x="142" y="274"/>
      <point x="77" y="343"/>
    </contour>
    <contour>
      <point x="409" y="534" type="curve" smooth="yes"/>
      <point x="409" y="619"/>
      <point x="359" y="676"/>
      <point x="284" y="676" type="curve" smooth="yes"/>
      <point x="190" y="676"/>
      <point x="117" y="579"/>
      <point x="117" y="453" type="curve" smooth="yes"/>
      <point x="117" y="368"/>
      <point x="166" y="309"/>
      <point x="242" y="309" type="curve" smooth="yes"/>
      <point x="336" y="309"/>
      <point x="409" y="407"/>
    </contour>
  </outline>
</glyph>
<glyph name="guillemotright" format="1">
  <advance width="556"/>
  <unicode hex="00BB"/>
  <outline>
    <contour>
      <point x="512" y="262" type="line"/>
      <point x="263" y="0" type="line"/>
      <point x="212" y="0" type="line"/>
      <point x="461" y="264" type="line"/>
      <point x="306" y="525" type="line"/>
      <point x="355" y="525" type="line"/>
    </contour>
    <contour>
      <point x="299" y="262" type="line"/>
      <point x="50" y="0" type="line"/>
      <point x="-1" y="0" type="line"/>
      <point x="248" y="264" type="line"/>
      <point x="93" y="525" type="line"/>
      <point x="142" y="525" type="line"/>
    </contour>
  </outline>
</glyph>
<glyph name="questiondown" format="1">
  <advance width="555"/>
  <unicode hex="00BF"/>
  <outline>
    <contour>
      <point x="325" y="667" type="curve" smooth="yes"/>
      <point x="325" y="689"/>
      <point x="343" y="706"/>
      <point x="364" y="706" type="curve" smooth="yes"/>
      <point x="385" y="706"/>
      <point x="403" y="689"/>
      <point x="403" y="667" type="curve" smooth="yes"/>
      <point x="403" y="646"/>
      <point x="385" y="626"/>
      <point x="364" y="626" type="curve" smooth="yes"/>
      <point x="343" y="626"/>
      <point x="325" y="646"/>
    </contour>
    <contour>
      <point x="456" y="61" type="line"/>
      <point x="399" y="18"/>
      <point x="325" y="-11"/>
      <point x="237" y="-11" type="curve" smooth="yes"/>
      <point x="128" y="-11"/>
      <point x="46" y="36"/>
      <point x="46" y="136" type="curve" smooth="yes"/>
      <point x="46" y="240"/>
      <point x="108" y="289"/>
      <point x="202" y="343" type="curve" smooth="yes"/>
      <point x="286" y="391"/>
      <point x="303" y="413"/>
      <point x="322" y="534" type="curve"/>
      <point x="367" y="534" type="line"/>
      <point x="344" y="391"/>
      <point x="325" y="368"/>
      <point x="224" y="308" type="curve" smooth="yes"/>
      <point x="149" y="263"/>
      <point x="92" y="223"/>
      <point x="92" y="138" type="curve" smooth="yes"/>
      <point x="92" y="69"/>
      <point x="155" y="31"/>
      <point x="239" y="31" type="curve" smooth="yes"/>
      <point x="315" y="31"/>
      <point x="383" y="59"/>
      <point x="432" y="96" type="curve"/>
    </contour>
  </outline>
</glyph>
<glyph name="Aring" format="1">
  <advance width="660"/>
  <unicode hex="00C5"/>
  <outline>
    <contour>
      <point x="542" y="0" type="line"/>
      <point x="495" y="0" type="line"/>
      <point x="463" y="193" type="line"/>
      <point x="155" y="193" type="line"/>
      <point x="56" y="0" type="line"/>
      <point x="7" y="0" type="line"/>
      <point x="361" y="678" type="line"/>
      <point x="328" y="693"/>
      <point x="307" y="726"/>
      <point x="307" y="765" type="curve" smooth="yes"/>
      <point x="307" y="819"/>
      <point x="348" y="862"/>
      <point x="404" y="862" type="curve" smooth="yes"/>
      <point x="460" y="862"/>
      <point x="502" y="819"/>
      <point x="502" y="765" type="curve" smooth="yes"/>
      <point x="502" y="719"/>
      <point x="471" y="681"/>
      <point x="428" y="672" type="curve"/>
    </contour>
    <contour>
      <point x="473" y="765" type="curve" smooth="yes"/>
      <point x="473" y="804"/>
      <point x="444" y="834"/>
      <point x="404" y="834" type="curve" smooth="yes"/>
      <point x="364" y="834"/>
      <point x="336" y="804"/>
      <point x="336" y="765" type="curve" smooth="yes"/>
      <point x="336" y="725"/>
      <point x="364" y="696"/>
      <point x="404" y="696" type="curve" smooth="yes"/>
      <point x="444" y="696"/>
      <point x="473" y="725"/>
    </contour>
    <contour>
      <point x="457" y="235" type="line"/>
      <point x="405" y="546" type="line" smooth="yes"/>
      <point x="400" y="573"/>
      <point x="392" y="635"/>
      <point x="390" y="651" type="curve"/>
      <point x="384" y="635"/>
      <point x="353" y="575"/>
      <point x="339" y="547" type="curve" smooth="yes"/>
      <point x="177" y="235" type="line"/>
    </contour>
  </outline>
</glyph>
<glyph name="AE" format="1">
  <advance width="960"/>
  <unicode hex="00C6"/>
  <outline>
    <contour>
      <point x="187" y="192" type="line"/>
      <point x="25" y="0" type="line"/>
      <point x="-29" y="0" type="line"/>
      <point x="565" y="700" type="line"/>
      <point x="965" y="700" type="line"/>
      <point x="958" y="658" type="line"/>
      <point x="613" y="658" type="line"/>
      <point x="566" y="394" type="line"/>
      <point x="777" y="394" type="line"/>
      <point x="770" y="352" type="line"/>
      <point x="559" y="352" type="line"/>
      <point x="504" y="42" type="line"/>
      <point x="865" y="42" type="line"/>
      <point x="857" y="0" type="line"/>
      <point x="452" y="0" type="line"/>
      <point x="486" y="192" type="line"/>
    </contour>
    <contour>
      <point x="222" y="234" type="line"/>
      <point x="494" y="234" type="line"/>
      <point x="568" y="645" type="line"/>
    </contour>
  </outline>
</glyph>
<glyph name="Ccedilla" format="1">
  <advance width="615"/>
  <unicode hex="00C7"/>
  <outline>
    <contour>
      <point x="601" y="611" type="curve"/>
      <point x="561" y="586" type="line"/>
      <point x="528" y="636"/>
      <point x="478" y="669"/>
      <point x="400" y="669" type="curve" smooth="yes"/>
      <point x="230" y="669"/>
      <point x="113" y="479"/>
      <point x="113" y="278" type="curve" smooth="yes"/>
      <point x="113" y="121"/>
      <point x="197" y="31"/>
      <point x="317" y="31" type="curve" smooth="yes"/>
      <point x="383" y="31"/>
      <point x="438" y="58"/>
      <point x="491" y="107" type="curve"/>
      <point x="518" y="77" type="line"/>
      <point x="462" y="22"/>
      <point x="393" y="-11"/>
      <point x="313" y="-11" type="curve" smooth="yes"/>
      <point x="304" y="-11"/>
      <point x="296" y="-11"/>
      <point x="288" y="-10" type="curve"/>
      <point x="263" y="-52" type="line"/>
      <point x="276" y="-44"/>
      <point x="291" y="-40"/>
      <point x="310" y="-40" type="curve" smooth="yes"/>
      <point x="342" y="-40"/>
      <point x="370" y="-57"/>
      <point x="370" y="-96" type="curve" smooth="yes"/>
      <point x="370" y="-152"/>
      <point x="322" y="-178"/>
      <point x="266" y="-178" type="curve" smooth="yes"/>
      <point x="219" y="-178"/>
      <point x="182" y="-165"/>
      <point x="149" y="-137" type="curve"/>
      <point x="166" y="-118" type="line"/>
      <point x="194" y="-141"/>
      <point x="227" y="-151"/>
      <point x="263" y="-151" type="curve" smooth="yes"/>
      <point x="304" y="-151"/>
      <point x="334" y="-133"/>
      <point x="334" y="-100" type="curve" smooth="yes"/>
      <point x="334" y="-77"/>
      <point x="319" y="-65"/>
      <point x="297" y="-65" type="curve" smooth="yes"/>
      <point x="277" y="-65"/>
      <point x="259" y="-72"/>
      <point x="244" y="-84" type="curve"/>
      <point x="222" y="-75" type="line"/>
      <point x="260" y="-6" type="line"/>
      <point x="144" y="16"/>
      <point x="67" y="117"/>
      <point x="67" y="276" type="curve" smooth="yes"/>
      <point x="67" y="502"/>
      <point x="206" y="711"/>
      <point x="406" y="711" type="curve" smooth="yes"/>
      <point x="499" y="711"/>
      <point x="562" y="672"/>
    </contour>
  </outline>
</glyph>
<glyph name="Eth" format="1">
  <advance width="670"/>
  <unicode hex="00D0"/>
  <outline>
    <contour>
      <point x="113" y="344" type="line"/>
      <point x="46" y="344" type="line"/>
      <point x="54" y="386" type="line"/>
      <point x="120" y="386" type="line"/>
      <point x="176" y="700" type="line"/>
      <point x="319" y="700" type="line" smooth="yes"/>
      <point x="496" y="700"/>
      <point x="611" y="616"/>
      <point x="611" y="423" type="curve" smooth="yes"/>
      <point x="611" y="145"/>
      <point x="437" y="0"/>
      <point x="227" y="0" type="curve" smooth="yes"/>
      <point x="52" y="0" type="line"/>
    </contour>
    <contour>
      <point x="167" y="386" type="line"/>
      <point x="317" y="386" type="line"/>
      <point x="309" y="344" type="line"/>
      <point x="159" y="344" type="line"/>
      <point x="106" y="42" type="line"/>
      <point x="230" y="42" type="line" smooth="yes"/>
      <point x="422" y="42"/>
      <point x="565" y="180"/>
      <point x="565" y="421" type="curve" smooth="yes"/>
      <point x="565" y="588"/>
      <point x="472" y="658"/>
      <point x="315" y="658" type="curve" smooth="yes"/>
      <point x="215" y="658" type="line"/>
    </contour>
  </outline>
</glyph>
<glyph name="Oslash" format="1">
  <advance width="711"/>
  <unicode hex="00D8"/>
  <outline>
    <contour>
      <point x="145" y="55" type="line"/>
      <point x="95" y="104"/>
      <point x="66" y="178"/>
      <point x="66" y="271" type="curve" smooth="yes"/>
      <point x="66" y="498"/>
      <point x="194" y="711"/>
      <point x="408" y="711" type="curve" smooth="yes"/>
      <point x="461" y="711"/>
      <point x="508" y="697"/>
      <point x="546" y="671" type="curve"/>
      <point x="598" y="750" type="line"/>
      <point x="639" y="750" type="line"/>
      <point x="573" y="649" type="line"/>
      <point x="626" y="600"/>
      <point x="656" y="525"/>
      <point x="656" y="432" type="curve" smooth="yes"/>
      <point x="657" y="215"/>
      <point x="536" y="-11"/>
      <point x="317" y="-11" type="curve" smooth="yes"/>
      <point x="261" y="-11"/>
      <point x="211" y="4"/>
      <point x="171" y="33" type="curve"/>
      <point x="117" y="-50" type="line"/>
      <point x="76" y="-50" type="line"/>
    </contour>
    <contour>
      <point x="170" y="94" type="curve"/>
      <point x="522" y="634" type="line"/>
      <point x="492" y="657"/>
      <point x="453" y="670"/>
      <point x="408" y="670" type="curve" smooth="yes"/>
      <point x="217" y="670"/>
      <point x="111" y="473"/>
      <point x="111" y="271" type="curve" smooth="yes"/>
      <point x="111" y="197"/>
      <point x="132" y="136"/>
    </contour>
    <contour>
      <point x="548" y="611" type="curve"/>
      <point x="195" y="70" type="line"/>
      <point x="228" y="44"/>
      <point x="269" y="30"/>
      <point x="317" y="30" type="curve" smooth="yes"/>
      <point x="508" y="30"/>
      <point x="612" y="238"/>
      <point x="611" y="432" type="curve" smooth="yes"/>
      <point x="611" y="506"/>
      <point x="588" y="569"/>
    </contour>
  </outline>
</glyph>
<glyph name="Thorn" format="1">
  <advance width="590"/>
  <unicode hex="00DE"/>
  <outline>
    <contour>
      <point x="116" y="160" type="line"/>
      <point x="88" y="0" type="line"/>
      <point x="42" y="0" type="line"/>
      <point x="165" y="700" type="line"/>
      <point x="211" y="700" type="line"/>
      <point x="188" y="568" type="line"/>
      <point x="336" y="568" type="line" smooth="yes"/>
      <point x="474" y="568"/>
      <point x="556" y="516"/>
      <point x="556" y="400" type="curve" smooth="yes"/>
      <point x="556" y="247"/>
      <point x="459" y="160"/>
      <point x="273" y="160" type="curve" smooth="yes"/>
    </contour>
    <contour>
      <point x="276" y="201" type="line" smooth="yes"/>
      <point x="436" y="201"/>
      <point x="508" y="281"/>
      <point x="508" y="398" type="curve" smooth="yes"/>
      <point x="508" y="490"/>
      <point x="441" y="526"/>
      <point x="333" y="526" type="curve" smooth="yes"/>
      <point x="181" y="526" type="line"/>
      <point x="124" y="201" type="line"/>
    </contour>
  </outline>
</glyph>
<glyph name="germandbls" format="1">
  <advance width="565"/>
  <unicode hex="00DF"/>
  <outline>
    <contour>
      <point x="500" y="575" type="curve" smooth="yes"/>
      <point x="500" y="475"/>
      <point x="427" y="410"/>
      <point x="353" y="400" type="curve"/>
      <point x="439" y="384"/>
      <point x="497" y="325"/>
      <point x="497" y="238" type="curve" smooth="yes"/>
      <point x="497" y="86"/>
      <point x="387" y="0"/>
      <point x="232" y="0" type="curve" smooth="yes"/>
      <point x="224" y="0"/>
      <point x="195" y="1"/>
      <point x="188" y="1" type="curve"/>
      <point x="194" y="41" type="line"/>
      <point x="202" y="40"/>
      <point x="226" y="40"/>
      <point x="233" y="40" type="curve" smooth="yes"/>
      <point x="367" y="40"/>
      <point x="451" y="116"/>
      <point x="451" y="235" type="curve" smooth="yes"/>
      <point x="451" y="325"/>
      <point x="382" y="380"/>
      <point x="272" y="380" type="curve" smooth="yes"/>
      <point x="255" y="380" type="line"/>
      <point x="262" y="419" type="line"/>
      <point x="281" y="419" type="line" smooth="yes"/>
      <point x="393" y="419"/>
      <point x="455" y="484"/>
      <point x="455" y="573" type="curve" smooth="yes"/>
      <point x="455" y="636"/>
      <point x="413" y="684"/>
      <point x="329" y="684" type="curve" smooth="yes"/>
      <point x="242" y="684"/>
      <point x="186" y="625"/>
      <point x="170" y="532" type="curve" smooth="yes"/>
      <point x="47" y="-162" type="line"/>
      <point x="-2" y="-188" type="line"/>
      <point x="125" y="534" type="line" smooth="yes"/>
      <point x="146" y="653"/>
      <point x="213" y="723"/>
      <point x="329" y="723" type="curve" smooth="yes"/>
      <point x="440" y="723"/>
      <point x="500" y="662"/>
    </contour>
  </outline>
</glyph>
<glyph name="ae" format="1">
  <advance width="866"/>
  <unicode hex="00E6"/>
  <outline>
    <contour>
      <point x="805" y="325" type="curve" smooth="yes"/>
      <point x="805" y="297"/>
      <point x="802" y="269"/>
      <point x="800" y="248" type="curve"/>
      <point x="428" y="248" type="line"/>
      <point x="427" y="236"/>
      <point x="426" y="223"/>
      <point x="426" y="209" type="curve" smooth="yes"/>
      <point x="426" y="85"/>
      <point x="492" y="28"/>
      <point x="585" y="28" type="curve" smooth="yes"/>
      <point x="635" y="28"/>
      <point x="674" y="42"/>
      <point x="720" y="65" type="curve"/>
      <point x="737" y="30" type="line"/>
      <point x="686" y="4"/>
      <point x="639" y="-11"/>
      <point x="579" y="-11" type="curve" smooth="yes"/>
      <point x="500" y="-11"/>
      <point x="431" y="24"/>
      <point x="402" y="106" type="curve"/>
      <point x="333" y="28"/>
      <point x="261" y="-11"/>
      <point x="176" y="-11" type="curve" smooth="yes"/>
      <point x="90" y="-11"/>
      <point x="21" y="33"/>
      <point x="21" y="133" type="curve" smooth="yes"/>
      <point x="21" y="251"/>
      <point x="109" y="320"/>
      <point x="236" y="320" type="curve" smooth="yes"/>
      <point x="300" y="320"/>
      <point x="356" y="298"/>
      <point x="390" y="278" type="curve"/>
      <point x="403" y="354" type="line" smooth="yes"/>
      <point x="406" y="370"/>
      <point x="408" y="386"/>
      <point x="408" y="400" type="curve" smooth="yes"/>
      <point x="408" y="462"/>
      <point x="375" y="498"/>
      <point x="289" y="498" type="curve" smooth="yes"/>
      <point x="234" y="498"/>
      <point x="177" y="479"/>
      <point x="143" y="462" type="curve"/>
      <point x="130" y="498" type="line"/>
      <point x="166" y="515"/>
      <point x="228" y="536"/>
      <point x="293" y="536" type="curve" smooth="yes"/>
      <point x="391" y="536"/>
      <point x="445" y="498"/>
      <point x="445" y="416" type="curve"/>
      <point x="484" y="491"/>
      <point x="554" y="536"/>
      <point x="627" y="536" type="curve" smooth="yes"/>
      <point x="748" y="536"/>
      <point x="805" y="443"/>
    </contour>
    <contour>
      <point x="760" y="285" type="line"/>
      <point x="761" y="298"/>
      <point x="762" y="312"/>
      <point x="762" y="325" type="curve" smooth="yes"/>
      <point x="761" y="419"/>
      <point x="722" y="497"/>
      <point x="624" y="497" type="curve" smooth="yes"/>
      <point x="535" y="497"/>
      <point x="455" y="415"/>
      <point x="433" y="285" type="curve"/>
    </contour>
    <contour>
      <point x="390" y="144" type="curve"/>
      <point x="386" y="162"/>
      <point x="384" y="181"/>
      <point x="384" y="203" type="curve" smooth="yes"/>
      <point x="384" y="212"/>
      <point x="385" y="232"/>
      <point x="385" y="240" type="curve"/>
      <point x="340" y="267"/>
      <point x="295" y="284"/>
      <point x="231" y="284" type="curve" smooth="yes"/>
      <point x="128" y="284"/>
      <point x="66" y="226"/>
      <point x="66" y="137" type="curve" smooth="yes"/>
      <point x="66" y="62"/>
      <point x="114" y="26"/>
      <point x="186" y="26" type="curve" smooth="yes"/>
      <point x="253" y="26"/>
      <point x="321" y="63"/>
    </contour>
  </outline>
</glyph>
<glyph name="ccedilla" format="1">
  <advance width="488"/>
  <unicode hex="00E7"/>
  <outline>
    <contour>
      <point x="460" y="467" type="curve"/>
      <point x="429" y="437" type="line"/>
      <point x="404" y="466"/>
      <point x="362" y="496"/>
      <point x="297" y="496" type="curve" smooth="yes"/>
      <point x="186" y="496"/>
      <point x="92" y="381"/>
      <point x="92" y="208" type="curve" smooth="yes"/>
      <point x="92" y="88"/>
      <point x="152" y="28"/>
      <point x="248" y="28" type="curve" smooth="yes"/>
      <point x="296" y="28"/>
      <point x="336" y="45"/>
      <point x="372" y="75" type="curve"/>
      <point x="395" y="45" type="line"/>
      <point x="351" y="7"/>
      <point x="301" y="-11"/>
      <point x="242" y="-11" type="curve" smooth="yes"/>
      <point x="234" y="-11"/>
      <point x="226" y="-11"/>
      <point x="218" y="-10" type="curve"/>
      <point x="193" y="-52" type="line"/>
      <point x="206" y="-44"/>
      <point x="221" y="-40"/>
      <point x="239" y="-40" type="curve" smooth="yes"/>
      <point x="272" y="-40"/>
      <point x="300" y="-57"/>
      <point x="300" y="-96" type="curve" smooth="yes"/>
      <point x="300" y="-152"/>
      <point x="252" y="-178"/>
      <point x="196" y="-178" type="curve" smooth="yes"/>
      <point x="149" y="-178"/>
      <point x="112" y="-165"/>
      <point x="79" y="-137" type="curve"/>
      <point x="96" y="-118" type="line"/>
      <point x="124" y="-141"/>
      <point x="157" y="-151"/>
      <point x="193" y="-151" type="curve" smooth="yes"/>
      <point x="234" y="-151"/>
      <point x="264" y="-133"/>
      <point x="264" y="-100" type="curve" smooth="yes"/>
      <point x="264" y="-77"/>
      <point x="249" y="-65"/>
      <point x="227" y="-65" type="curve" smooth="yes"/>
      <point x="207" y="-65"/>
      <point x="189" y="-72"/>
      <point x="174" y="-84" type="curve"/>
      <point x="152" y="-75" type="line"/>
      <point x="190" y="-5" type="line"/>
      <point x="103" y="15"/>
      <point x="47" y="87"/>
      <point x="47" y="207" type="curve" smooth="yes"/>
      <point x="47" y="410"/>
      <point x="168" y="535"/>
      <point x="299" y="535" type="curve" smooth="yes"/>
      <point x="382" y="535"/>
      <point x="429" y="500"/>
    </contour>
  </outline>
</glyph>
<glyph name="eth" format="1">
  <advance width="567"/>
  <unicode hex="00F0"/>
  <outline>
    <contour>
      <point x="387" y="665" type="curve"/>
      <point x="428" y="703" type="line"/>
      <point x="454" y="677" type="line"/>
      <point x="417" y="643" type="line"/>
      <point x="477" y="591"/>
      <point x="516" y="509"/>
      <point x="516" y="385" type="curve" smooth="yes"/>
      <point x="516" y="139"/>
      <point x="398" y="-11"/>
      <point x="249" y="-11" type="curve" smooth="yes"/>
      <point x="122" y="-11"/>
      <point x="43" y="68"/>
      <point x="43" y="192" type="curve" smooth="yes"/>
      <point x="43" y="363"/>
      <point x="152" y="483"/>
      <point x="287" y="483" type="curve" smooth="yes"/>
      <point x="393" y="483"/>
      <point x="453" y="427"/>
      <point x="476" y="355" type="curve"/>
      <point x="480" y="488"/>
      <point x="446" y="568"/>
      <point x="388" y="615" type="curve"/>
      <point x="330" y="560" type="line"/>
      <point x="304" y="587" type="line"/>
      <point x="357" y="636" type="line"/>
      <point x="325" y="654"/>
      <point x="289" y="666"/>
      <point x="249" y="673" type="curve"/>
      <point x="256" y="712" type="line"/>
      <point x="304" y="704"/>
      <point x="349" y="689"/>
    </contour>
    <contour>
      <point x="455" y="262" type="curve"/>
      <point x="458" y="367"/>
      <point x="400" y="444"/>
      <point x="286" y="444" type="curve" smooth="yes"/>
      <point x="172" y="444"/>
      <point x="88" y="338"/>
      <point x="88" y="195" type="curve" smooth="yes"/>
      <point x="88" y="90"/>
      <point x="147" y="28"/>
      <point x="251" y="28" type="curve" smooth="yes"/>
      <point x="348" y="28"/>
      <point x="434" y="115"/>
    </contour>
  </outline>
</glyph>
<glyph name="oslash" format="1">
  <advance width="563"/>
  <unicode hex="00F8"/>
  <outline>
    <contour>
      <point x="109" y="42" type="line"/>
      <point x="71" y="78"/>
      <point x="47" y="134"/>
      <point x="47" y="210" type="curve" smooth="yes"/>
      <point x="47" y="403"/>
      <point x="157" y="535"/>
      <point x="299" y="535" type="curve" smooth="yes"/>
      <point x="344" y="535"/>
      <point x="386" y="524"/>
      <point x="420" y="501" type="curve"/>
      <point x="470" y="575" type="line"/>
      <point x="509" y="575" type="line"/>
      <point x="445" y="481" type="line"/>
      <point x="483" y="444"/>
      <point x="506" y="389"/>
      <point x="506" y="315" type="curve" smooth="yes"/>
      <point x="506" y="123"/>
      <point x="395" y="-10"/>
      <point x="250" y="-10" type="curve" smooth="yes"/>
      <point x="207" y="-10"/>
      <point x="167" y="1"/>
      <point x="134" y="22" type="curve"/>
      <point x="86" y="-50" type="line"/>
      <point x="47" y="-50" type="line"/>
    </contour>
    <contour>
      <point x="135" y="80" type="curve"/>
      <point x="396" y="465" type="line"/>
      <point x="369" y="486"/>
      <point x="336" y="496"/>
      <point x="300" y="496" type="curve" smooth="yes"/>
      <point x="180" y="496"/>
      <point x="92" y="374"/>
      <point x="92" y="211" type="curve" smooth="yes"/>
      <point x="92" y="155"/>
      <point x="108" y="111"/>
    </contour>
    <contour>
      <point x="419" y="443" type="curve"/>
      <point x="158" y="57" type="line"/>
      <point x="184" y="39"/>
      <point x="215" y="29"/>
      <point x="249" y="29" type="curve" smooth="yes"/>
      <point x="372" y="29"/>
      <point x="461" y="153"/>
      <point x="461" y="315" type="curve" smooth="yes"/>
      <point x="461" y="369"/>
      <point x="445" y="412"/>
    </contour>
  </outline>
</glyph>
<glyph name="thorn" format="1">
  <advance width="549"/>
  <unicode hex="00FE"/>
  <outline>
    <contour>
      <point x="490" y="337" type="curve" smooth="yes"/>
      <point x="490" y="152"/>
      <point x="404" y="-11"/>
      <point x="249" y="-11" type="curve" smooth="yes"/>
      <point x="183" y="-11"/>
      <point x="125" y="23"/>
      <point x="88" y="83" type="curve"/>
      <point x="45" y="-161" type="line"/>
      <point x="-5" y="-189" type="line"/>
      <point x="153" y="696" type="line"/>
      <point x="201" y="721" type="line"/>
      <point x="153" y="451" type="line"/>
      <point x="191" y="492"/>
      <point x="251" y="535"/>
      <point x="321" y="535" type="curve" smooth="yes"/>
      <point x="419" y="535"/>
      <point x="490" y="469"/>
    </contour>
    <contour>
      <point x="446" y="335" type="curve" smooth="yes"/>
      <point x="446" y="438"/>
      <point x="397" y="496"/>
      <point x="309" y="496" type="curve" smooth="yes"/>
      <point x="248" y="496"/>
      <point x="195" y="460"/>
      <point x="145" y="404" type="curve"/>
      <point x="96" y="129" type="line"/>
      <point x="129" y="66"/>
      <point x="181" y="28"/>
      <point x="251" y="28" type="curve" smooth="yes"/>
      <point x="370" y="28"/>
      <point x="446" y="163"/>
    </contour>
  </outline>
</glyph>
<glyph name="dotlessi" format="1">
  <advance width="226"/>
  <unicode hex="0131"/>
  <outline>
    <contour>
      <point x="173" y="525" type="line"/>
      <point x="80" y="0" type="line"/>
      <point x="36" y="0" type="line"/>
      <point x="129" y="525" type="line"/>
    </contour>
  </outline>
</glyph>
<glyph name="Lslash" format="1">
  <advance width="544"/>
  <unicode hex="0141"/>
  <outline>
    <contour>
      <point x="442" y="42" type="line"/>
      <point x="434" y="0" type="line"/>
      <point x="47" y="0" type="line"/>
      <point x="92" y="254" type="line"/>
      <point x="26" y="203" type="line"/>
      <point x="35" y="256" type="line"/>
      <point x="101" y="307" type="line"/>
      <point x="171" y="700" type="line"/>
      <point x="217" y="700" type="line"/>
      <point x="153" y="341" type="line"/>
      <point x="348" y="487" type="line"/>
      <point x="339" y="434" type="line"/>
      <point x="144" y="288" type="line"/>
      <point x="101" y="42" type="line"/>
    </contour>
  </outline>
</glyph>
<glyph name="lslash" format="1">
  <advance width="240"/>
  <unicode hex="0142"/>
  <outline>
    <contour>
      <point x="217" y="729" type="line"/>
      <point x="152" y="363" type="line"/>
      <point x="212" y="409" type="line"/>
      <point x="202" y="355" type="line"/>
      <point x="143" y="310" type="line"/>
      <point x="88" y="0" type="line"/>
      <point x="44" y="0" type="line"/>
      <point x="92" y="278" type="line"/>
      <point x="33" y="232" type="line"/>
      <point x="43" y="286" type="line"/>
      <point x="102" y="331" type="line"/>
      <point x="168" y="704" type="line"/>
    </contour>
  </outline>
</glyph>
<glyph name="OE" format="1">
  <advance width="1046"/>
  <unicode hex="0152"/>
  <outline>
    <contour>
      <point x="1052" y="700" type="line"/>
      <point x="1045" y="658" type="line"/>
      <point x="698" y="658" type="line"/>
      <point x="651" y="394" type="line"/>
      <point x="862" y="394" type="line"/>
      <point x="855" y="352" type="line"/>
      <point x="644" y="352" type="line"/>
      <point x="590" y="42" type="line"/>
      <point x="952" y="42" type="line"/>
      <point x="944" y="0" type="line"/>
      <point x="539" y="0" type="line"/>
      <point x="564" y="140" type="line"/>
      <point x="517" y="59"/>
      <point x="443" y="-11"/>
      <point x="316" y="-11" type="curve" smooth="yes"/>
      <point x="169" y="-11"/>
      <point x="66" y="96"/>
      <point x="66" y="271" type="curve" smooth="yes"/>
      <point x="66" y="506"/>
      <point x="201" y="711"/>
      <point x="408" y="711" type="curve" smooth="yes"/>
      <point x="525" y="711"/>
      <point x="607" y="640"/>
      <point x="633" y="531" type="curve"/>
      <point x="663" y="700" type="line"/>
    </contour>
    <contour>
      <point x="609" y="430" type="curve" smooth="yes"/>
      <point x="609" y="573"/>
      <point x="532" y="669"/>
      <point x="407" y="669" type="curve" smooth="yes"/>
      <point x="222" y="669"/>
      <point x="112" y="478"/>
      <point x="112" y="271" type="curve" smooth="yes"/>
      <point x="112" y="119"/>
      <point x="201" y="31"/>
      <point x="316" y="31" type="curve" smooth="yes"/>
      <point x="506" y="31"/>
      <point x="610" y="238"/>
    </contour>
  </outline>
</glyph>
<glyph name="oe" format="1">
  <advance width="933"/>
  <unicode hex="0153"/>
  <outline>
    <contour>
      <point x="872" y="325" type="curve" smooth="yes"/>
      <point x="872" y="297"/>
      <point x="869" y="269"/>
      <point x="867" y="248" type="curve"/>
      <point x="494" y="248" type="line"/>
      <point x="492" y="236"/>
      <point x="491" y="223"/>
      <point x="491" y="209" type="curve" smooth="yes"/>
      <point x="491" y="84"/>
      <point x="559" y="28"/>
      <point x="652" y="28" type="curve" smooth="yes"/>
      <point x="703" y="28"/>
      <point x="748" y="45"/>
      <point x="787" y="65" type="curve"/>
      <point x="804" y="30" type="line"/>
      <point x="755" y="5"/>
      <point x="707" y="-11"/>
      <point x="646" y="-11" type="curve" smooth="yes"/>
      <point x="554" y="-11"/>
      <point x="474" y="38"/>
      <point x="460" y="146" type="curve"/>
      <point x="422" y="51"/>
      <point x="346" y="-10"/>
      <point x="247" y="-10" type="curve" smooth="yes"/>
      <point x="135" y="-10"/>
      <point x="47" y="67"/>
      <point x="47" y="212" type="curve" smooth="yes"/>
      <point x="47" y="402"/>
      <point x="157" y="535"/>
      <point x="300" y="535" type="curve" smooth="yes"/>
      <point x="394" y="535"/>
      <point x="472" y="481"/>
      <point x="488" y="378" type="curve"/>
      <point x="525" y="474"/>
      <point x="601" y="536"/>
      <point x="693" y="536" type="curve" smooth="yes"/>
      <point x="814" y="536"/>
      <point x="872" y="443"/>
    </contour>
    <contour>
      <point x="827" y="285" type="line"/>
      <point x="828" y="298"/>
      <point x="829" y="311"/>
      <point x="829" y="324" type="curve" smooth="yes"/>
      <point x="829" y="419"/>
      <point x="788" y="497"/>
      <point x="691" y="497" type="curve" smooth="yes"/>
      <point x="601" y="497"/>
      <point x="521" y="417"/>
      <point x="499" y="285" type="curve"/>
    </contour>
    <contour>
      <point x="457" y="314" type="curve" smooth="yes"/>
      <point x="457" y="436"/>
      <point x="390" y="496"/>
      <point x="299" y="496" type="curve" smooth="yes"/>
      <point x="180" y="496"/>
      <point x="92" y="373"/>
      <point x="92" y="212" type="curve" smooth="yes"/>
      <point x="92" y="91"/>
      <point x="165" y="29"/>
      <point x="248" y="29" type="curve" smooth="yes"/>
      <point x="371" y="29"/>
      <point x="457" y="152"/>
    </contour>
  </outline>
</glyph>
<glyph name="florin" format="1">
  <advance width="368"/>
  <unicode hex="0192"/>
  <outline>
    <contour>
      <point x="386" y="694" type="curve"/>
      <point x="379" y="653" type="line"/>
      <point x="362" y="662"/>
      <point x="338" y="670"/>
      <point x="308" y="670" type="curve" smooth="yes"/>
      <point x="265" y="670"/>
      <point x="238" y="652"/>
      <point x="226" y="587" type="curve" smooth="yes"/>
      <point x="215" y="525" type="line"/>
      <point x="336" y="525" type="line"/>
      <point x="330" y="488" type="line"/>
      <point x="208" y="488" type="line"/>
      <point x="93" y="-164" type="line"/>
      <point x="43" y="-189" type="line"/>
      <point x="163" y="488" type="line"/>
      <point x="86" y="488" type="line"/>
      <point x="93" y="525" type="line"/>
      <point x="170" y="525" type="line"/>
      <point x="182" y="592" type="line" smooth="yes"/>
      <point x="199" y="686"/>
      <point x="242" y="711"/>
      <point x="310" y="711" type="curve" smooth="yes"/>
      <point x="342" y="711"/>
      <point x="368" y="702"/>
    </contour>
  </outline>
</glyph>
<glyph name="circumflex" format="1">
  <advance width="500"/>
  <unicode hex="02C6"/>
  <outline>
    <contour>
      <point x="451" y="595" type="line"/>
      <point x="412" y="595" type="line"/>
      <point x="318" y="709" type="line"/>
      <point x="184" y="594" type="line"/>
      <point x="142" y="594" type="line"/>
      <point x="298" y="742" type="line"/>
      <point x="347" y="742" type="line"/>
    </contour>
  </outline>
</glyph>
<glyph name="caron" format="1">
  <advance width="500"/>
  <unicode hex="02C7"/>
  <outline>
    <contour>
      <point x="478" y="743" type="line"/>
      <point x="322" y="596" type="line"/>
      <point x="273" y="596" type="line"/>
      <point x="169" y="742" type="line"/>
      <point x="208" y="742" type="line"/>
      <point x="302" y="629" type="line"/>
      <point x="436" y="743" type="line"/>
    </contour>
  </outline>
</glyph>
<glyph name="breve" format="1">
  <advance width="500"/>
  <unicode hex="02D8"/>
  <outline>
    <contour>
      <point x="482" y="742" type="line"/>
      <point x="458" y="650"/>
      <point x="398" y="594"/>
      <point x="306" y="594" type="curve" smooth="yes"/>
      <point x="214" y="594"/>
      <point x="160" y="648"/>
      <point x="169" y="742" type="curve"/>
      <point x="205" y="742" type="line"/>
      <point x="199" y="666"/>
      <point x="238" y="628"/>
      <point x="312" y="628" type="curve" smooth="yes"/>
      <point x="376" y="628"/>
      <point x="424" y="668"/>
      <point x="445" y="742" type="curve"/>
    </contour>
  </outline>
</glyph>
<glyph name="dotaccent" format="1">
  <advance width="500"/>
  <unicode hex="02D9"/>
  <outline>
    <contour>
      <point x="346" y="661" type="curve" smooth="yes"/>
      <point x="346" y="641"/>
      <point x="330" y="625"/>
      <point x="310" y="625" type="curve" smooth="yes"/>
      <point x="290" y="625"/>
      <point x="274" y="641"/>
      <point x="274" y="661" type="curve" smooth="yes"/>
      <point x="274" y="681"/>
      <point x="290" y="697"/>
      <point x="310" y="697" type="curve" smooth="yes"/>
      <point x="330" y="697"/>
      <point x="346" y="681"/>
    </contour>
  </outline>
</glyph>
<glyph name="ring" format="1">
  <advance width="500"/>
  <unicode hex="02DA"/>
  <outline>
    <contour>
      <point x="410" y="694" type="curve" smooth="yes"/>
      <point x="410" y="640"/>
      <point x="368" y="597"/>
      <point x="312" y="597" type="curve" smooth="yes"/>
      <point x="256" y="597"/>
      <point x="214" y="640"/>
      <point x="214" y="694" type="curve" smooth="yes"/>
      <point x="214" y="748"/>
      <point x="256" y="791"/>
      <point x="312" y="791" type="curve" smooth="yes"/>
      <point x="368" y="791"/>
      <point x="410" y="748"/>
    </contour>
    <contour>
      <point x="380" y="694" type="curve" smooth="yes"/>
      <point x="380" y="734"/>
      <point x="352" y="764"/>
      <point x="312" y="764" type="curve" smooth="yes"/>
      <point x="272" y="764"/>
      <point x="244" y="734"/>
      <point x="244" y="694" type="curve" smooth="yes"/>
      <point x="244" y="655"/>
      <point x="272" y="625"/>
      <point x="312" y="625" type="curve" smooth="yes"/>
      <point x="352" y="625"/>
      <point x="380" y="655"/>
    </contour>
  </outline>
</glyph>
<glyph name="ogonek" format="1">
  <advance width="500"/>
  <unicode hex="02DB"/>
  <outline>
    <contour>
      <point x="282" y="-165" type="line"/>
      <point x="245" y="-183"/>
      <point x="215" y="-194"/>
      <point x="172" y="-194" type="curve" smooth="yes"/>
      <point x="117" y="-194"/>
      <point x="79" y="-172"/>
      <point x="79" y="-123" type="curve" smooth="yes"/>
      <point x="79" y="-77"/>
      <point x="114" y="-35"/>
      <point x="179" y="1" type="curve"/>
      <point x="218" y="1" type="line"/>
      <point x="154" y="-35"/>
      <point x="117" y="-74"/>
      <point x="117" y="-116" type="curve" smooth="yes"/>
      <point x="117" y="-149"/>
      <point x="142" y="-164"/>
      <point x="183" y="-164" type="curve" smooth="yes"/>
      <point x="211" y="-164"/>
      <point x="241" y="-159"/>
      <point x="276" y="-143" type="curve"/>
    </contour>
  </outline>
</glyph>
<glyph name="tilde" format="1">
  <advance width="500"/>
  <unicode hex="02DC"/>
  <outline>
    <contour>
      <point x="484" y="699" type="line"/>
      <point x="468" y="627"/>
      <point x="434" y="597"/>
      <point x="385" y="597" type="curve" smooth="yes"/>
      <point x="350" y="597"/>
      <point x="328" y="612"/>
      <point x="302" y="632" type="curve" smooth="yes"/>
      <point x="275" y="653"/>
      <point x="257" y="667"/>
      <point x="232" y="667" type="curve" smooth="yes"/>
      <point x="205" y="667"/>
      <point x="185" y="647"/>
      <point x="173" y="602" type="curve"/>
      <point x="135" y="602" type="line"/>
      <point x="151" y="674"/>
      <point x="187" y="704"/>
      <point x="234" y="704" type="curve" smooth="yes"/>
      <point x="271" y="704"/>
      <point x="293" y="686"/>
      <point x="321" y="666" type="curve" smooth="yes"/>
      <point x="347" y="646"/>
      <point x="363" y="634"/>
      <point x="387" y="634" type="curve" smooth="yes"/>
      <point x="416" y="634"/>
      <point x="433" y="655"/>
      <point x="446" y="699" type="curve"/>
    </contour>
  </outline>
</glyph>
<glyph name="hungarumlaut" format="1">
  <advance width="500"/>
  <unicode hex="02DD"/>
  <outline>
    <contour>
      <point x="508" y="742" type="line"/>
      <point x="352" y="595" type="line"/>
      <point x="314" y="595" type="line"/>
      <point x="443" y="742" type="line"/>
    </contour>
    <contour>
      <point x="338" y="742" type="line"/>
      <point x="182" y="595" type="line"/>
      <point x="144" y="595" type="line"/>
      <point x="273" y="742" type="line"/>
    </contour>
  </outline>
</glyph>
<glyph name="endash" format="1">
  <advance width="417"/>
  <unicode hex="2013"/>
  <outline>
    <contour>
      <point x="378" y="386" type="line"/>
      <point x="371" y="343" type="line"/>
      <point x="57" y="343" type="line"/>
      <point x="65" y="386" type="line"/>
    </contour>
  </outline>
</glyph>
<glyph name="emdash" format="1">
  <advance width="571"/>
  <unicode hex="2014"/>
  <outline>
    <contour>
      <point x="532" y="386" type="line"/>
      <point x="525" y="343" type="line"/>
      <point x="57" y="343" type="line"/>
      <point x="64" y="386" type="line"/>
    </contour>
  </outline>
</glyph>
<glyph name="quoteleft" format="1">
  <advance width="218"/>
  <unicode hex="2018"/>
  <unicode hex="02BB"/>
  <outline>
    <contour>
      <point x="213" y="700" type="line"/>
      <point x="162" y="508" type="line"/>
      <point x="101" y="508" type="line"/>
      <point x="180" y="700" type="line"/>
    </contour>
  </outline>
</glyph>
<glyph name="quoteright" format="1">
  <advance width="218"/>
  <unicode hex="2019"/>
  <unicode hex="02BC"/>
  <outline>
    <contour>
      <point x="221" y="700" type="line"/>
      <point x="141" y="508" type="line"/>
      <point x="108" y="508" type="line"/>
      <point x="160" y="700" type="line"/>
    </contour>
  </outline>
</glyph>
<glyph name="quotesinglbase" format="1">
  <advance width="218"/>
  <unicode hex="201A"/>
  <outline>
    <contour>
      <point x="109" y="91" type="line"/>
      <point x="29" y="-100" type="line"/>
      <point x="-4" y="-100" type="line"/>
      <point x="47" y="91" type="line"/>
    </contour>
  </outline>
</glyph>
<glyph name="quotedblleft" format="1">
  <advance width="406"/>
  <unicode hex="201C"/>
  <outline>
    <contour>
      <point x="400" y="700" type="line"/>
      <point x="349" y="508" type="line"/>
      <point x="287" y="508" type="line"/>
      <point x="367" y="700" type="line"/>
    </contour>
    <contour>
      <point x="213" y="700" type="line"/>
      <point x="161" y="508" type="line"/>
      <point x="100" y="508" type="line"/>
      <point x="180" y="700" type="line"/>
    </contour>
  </outline>
</glyph>
<glyph name="quotedblright" format="1">
  <advance width="406"/>
  <unicode hex="201D"/>
  <outline>
    <contour>
      <point x="409" y="700" type="line"/>
      <point x="329" y="508" type="line"/>
      <point x="297" y="508" type="line"/>
      <point x="348" y="700" type="line"/>
    </contour>
    <contour>
      <point x="222" y="700" type="line"/>
      <point x="142" y="508" type="line"/>
      <point x="109" y="508" type="line"/>
      <point x="160" y="700" type="line"/>
    </contour>
  </outline>
</glyph>
<glyph name="quotedblbase" format="1">
  <advance width="406"/>
  <unicode hex="201E"/>
  <outline>
    <contour>
      <point x="296" y="91" type="line"/>
      <point x="216" y="-100" type="line"/>
      <point x="184" y="-100" type="line"/>
      <point x="235" y="91" type="line"/>
    </contour>
    <contour>
      <point x="109" y="91" type="line"/>
      <point x="29" y="-100" type="line"/>
      <point x="-4" y="-100" type="line"/>
      <point x="47" y="91" type="line"/>
    </contour>
  </outline>
</glyph>
<glyph name="dagger" format="1">
  <advance width="539"/>
  <unicode hex="2020"/>
  <outline>
    <contour>
      <point x="513" y="451" type="line"/>
      <point x="506" y="411" type="line"/>
      <point x="308" y="411" type="line"/>
      <point x="218" y="-100" type="line"/>
      <point x="176" y="-100" type="line"/>
      <point x="266" y="411" type="line"/>
      <point x="68" y="411" type="line"/>
      <point x="76" y="451" type="line"/>
      <point x="274" y="451" type="line"/>
      <point x="317" y="700" type="line"/>
      <point x="359" y="700" type="line"/>
      <point x="316" y="451" type="line"/>
    </contour>
  </outline>
</glyph>
<glyph name="daggerdbl" format="1">
  <advance width="539"/>
  <unicode hex="2021"/>
  <outline>
    <contour>
      <point x="513" y="451" type="line"/>
      <point x="506" y="412" type="line"/>
      <point x="309" y="412" type="line"/>
      <point x="269" y="188" type="line"/>
      <point x="466" y="188" type="line"/>
      <point x="460" y="149" type="line"/>
      <point x="262" y="149" type="line"/>
      <point x="218" y="-100" type="line"/>
      <point x="176" y="-100" type="line"/>
      <point x="220" y="149" type="line"/>
      <point x="22" y="149" type="line"/>
      <point x="29" y="188" type="line"/>
      <point x="227" y="188" type="line"/>
      <point x="267" y="412" type="line"/>
      <point x="68" y="412" type="line"/>
      <point x="75" y="451" type="line"/>
      <point x="274" y="451" type="line"/>
      <point x="318" y="700" type="line"/>
      <point x="360" y="700" type="line"/>
      <point x="316" y="451" type="line"/>
    </contour>
  </outline>
</glyph>
<glyph name="ellipsis" format="1">
  <advance width="634"/>
  <unicode hex="2026"/>
  <outline>
    <contour>
      <point x="522" y="34" type="curve" smooth="yes"/>
      <point x="522" y="12"/>
      <point x="503" y="-6"/>
      <point x="482" y="-6" type="curve" smooth="yes"/>
      <point x="459" y="-6"/>
      <point x="441" y="12"/>
      <point x="441" y="34" type="curve" smooth="yes"/>
      <point x="441" y="57"/>
      <point x="459" y="76"/>
      <point x="482" y="76" type="curve" smooth="yes"/>
      <point x="503" y="76"/>
      <point x="522" y="57"/>
    </contour>
    <contour>
      <point x="311" y="34" type="curve" smooth="yes"/>
      <point x="311" y="12"/>
      <point x="292" y="-6"/>
      <point x="270" y="-6" type="curve" smooth="yes"/>
      <point x="248" y="-6"/>
      <point x="230" y="12"/>
      <point x="230" y="34" type="curve" smooth="yes"/>
      <point x="230" y="57"/>
      <point x="248" y="76"/>
      <point x="270" y="76" type="curve" smooth="yes"/>
      <point x="292" y="76"/>
      <point x="311" y="57"/>
    </contour>
    <contour>
      <point x="99" y="34" type="curve" smooth="yes"/>
      <point x="99" y="12"/>
      <point x="80" y="-6"/>
      <point x="59" y="-6" type="curve" smooth="yes"/>
      <point x="36" y="-6"/>
      <point x="18" y="12"/>
      <point x="18" y="34" type="curve" smooth="yes"/>
      <point x="18" y="57"/>
      <point x="36" y="76"/>
      <point x="59" y="76" type="curve" smooth="yes"/>
      <point x="80" y="76"/>
      <point x="99" y="57"/>
    </contour>
  </outline>
</glyph>
<glyph name="guilsinglleft" format="1">
  <advance width="343"/>
  <unicode hex="2039"/>
  <outline>
    <contour>
      <point x="328" y="525" type="line"/>
      <point x="78" y="260" type="line"/>
      <point x="233" y="0" type="line"/>
      <point x="185" y="0" type="line"/>
      <point x="28" y="261" type="line"/>
      <point x="277" y="525" type="line"/>
    </contour>
  </outline>
</glyph>
<glyph name="guilsinglright" format="1">
  <advance width="343"/>
  <unicode hex="203A"/>
  <outline>
    <contour>
      <point x="299" y="262" type="line"/>
      <point x="50" y="0" type="line"/>
      <point x="-1" y="0" type="line"/>
      <point x="248" y="264" type="line"/>
      <point x="93" y="525" type="line"/>
      <point x="142" y="525" type="line"/>
    </contour>
  </outline>
</glyph>
<glyph name="fraction" format="1">
  <advance width="454"/>
  <unicode hex="2044"/>
  <outline>
    <contour>
      <point x="567" y="700" type="line"/>
      <point x="-50" y="0" type="line"/>
      <point x="-99" y="0" type="line"/>
      <point x="517" y="700" type="line"/>
    </contour>
  </outline>
</glyph>
<glyph name="Euro" format="1">
  <advance width="579"/>
  <unicode hex="20AC"/>
  <outline>
    <contour>
      <point x="126" y="402" type="line"/>
      <point x="118" y="371"/>
      <point x="113" y="338"/>
      <point x="112" y="305" type="curve"/>
      <point x="385" y="305" type="line"/>
      <point x="377" y="265" type="line"/>
      <point x="111" y="265" type="line"/>
      <point x="115" y="117"/>
      <point x="188" y="30"/>
      <point x="299" y="30" type="curve" smooth="yes"/>
      <point x="361" y="30"/>
      <point x="409" y="61"/>
      <point x="456" y="108" type="curve"/>
      <point x="483" y="78" type="line"/>
      <point x="431" y="23"/>
      <point x="373" y="-11"/>
      <point x="296" y="-11" type="curve" smooth="yes"/>
      <point x="158" y="-11"/>
      <point x="66" y="94"/>
      <point x="66" y="276" type="curve" smooth="yes"/>
      <point x="66" y="505"/>
      <point x="197" y="711"/>
      <point x="389" y="711" type="curve" smooth="yes"/>
      <point x="478" y="711"/>
      <point x="529" y="671"/>
      <point x="566" y="610" type="curve"/>
      <point x="527" y="586" type="line"/>
      <point x="494" y="637"/>
      <point x="455" y="670"/>
      <point x="382" y="670" type="curve" smooth="yes"/>
      <point x="269" y="670"/>
      <point x="179" y="572"/>
      <point x="137" y="442" type="curve"/>
      <point x="410" y="442" type="line"/>
      <point x="402" y="402" type="line"/>
    </contour>
  </outline>
</glyph>
<glyph name="uni2117" format="1">
  <advance width="836"/>
  <unicode hex="2117"/>
  <outline>
    <contour>
      <point x="789" y="350" type="curve" smooth="yes"/>
      <point x="789" y="138"/>
      <point x="635" y="-11"/>
      <point x="428" y="-11" type="curve" smooth="yes"/>
      <point x="221" y="-11"/>
      <point x="67" y="138"/>
      <point x="67" y="350" type="curve" smooth="yes"/>
      <point x="67" y="562"/>
      <point x="221" y="711"/>
      <point x="428" y="711" type="curve" smooth="yes"/>
      <point x="635" y="711"/>
      <point x="789" y="562"/>
    </contour>
    <contour>
      <point x="759" y="350" type="curve" smooth="yes"/>
      <point x="759" y="545"/>
      <point x="618" y="683"/>
      <point x="428" y="683" type="curve" smooth="yes"/>
      <point x="238" y="683"/>
      <point x="97" y="545"/>
      <point x="97" y="350" type="curve" smooth="yes"/>
      <point x="97" y="155"/>
      <point x="238" y="17"/>
      <point x="428" y="17" type="curve" smooth="yes"/>
      <point x="618" y="17"/>
      <point x="759" y="155"/>
    </contour>
    <contour>
      <point x="587" y="431" type="curve" smooth="yes"/>
      <point x="587" y="351"/>
      <point x="533" y="309"/>
      <point x="446" y="309" type="curve" smooth="yes"/>
      <point x="352" y="309" type="line"/>
      <point x="352" y="141" type="line"/>
      <point x="320" y="141" type="line"/>
      <point x="320" y="549" type="line"/>
      <point x="455" y="549" type="line" smooth="yes"/>
      <point x="533" y="549"/>
      <point x="587" y="515"/>
    </contour>
    <contour>
      <point x="556" y="431" type="curve" smooth="yes"/>
      <point x="556" y="496"/>
      <point x="517" y="521"/>
      <point x="452" y="521" type="curve" smooth="yes"/>
      <point x="352" y="521" type="line"/>
      <point x="352" y="339" type="line"/>
      <point x="445" y="339" type="line" smooth="yes"/>
      <point x="518" y="339"/>
      <point x="556" y="367"/>
    </contour>
  </outline>
</glyph>
<glyph name="trademark" format="1">
  <advance width="787"/>
  <unicode hex="2122"/>
  <outline>
    <contour>
      <point x="377" y="700" type="line"/>
      <point x="372" y="675" type="line"/>
      <point x="247" y="675" type="line"/>
      <point x="179" y="292" type="line"/>
      <point x="150" y="292" type="line"/>
      <point x="217" y="675" type="line"/>
      <point x="92" y="675" type="line"/>
      <point x="97" y="700" type="line"/>
    </contour>
    <contour>
      <point x="804" y="700" type="line"/>
      <point x="732" y="292" type="line"/>
      <point x="705" y="292" type="line"/>
      <point x="766" y="643" type="line"/>
      <point x="558" y="287" type="line"/>
      <point x="555" y="285" type="line"/>
      <point x="471" y="643" type="line"/>
      <point x="409" y="292" type="line"/>
      <point x="382" y="292" type="line"/>
      <point x="454" y="700" type="line"/>
      <point x="484" y="700" type="line"/>
      <point x="566" y="344" type="line"/>
      <point x="772" y="700" type="line"/>
    </contour>
  </outline>
</glyph>
<glyph name="arrowup" format="1">
  <advance width="366"/>
  <unicode hex="2191"/>
  <outline>
    <contour>
      <point x="294" y="560" type="line" smooth="yes"/>
      <point x="298" y="555"/>
      <point x="293" y="549"/>
      <point x="289" y="551" type="curve"/>
      <point x="204" y="620" type="line"/>
      <point x="204" y="0" type="line"/>
      <point x="162" y="0" type="line"/>
      <point x="162" y="620" type="line"/>
      <point x="77" y="551" type="line"/>
      <point x="73" y="549"/>
      <point x="68" y="555"/>
      <point x="72" y="560" type="curve" smooth="yes"/>
      <point x="183" y="715" type="line"/>
    </contour>
  </outline>
</glyph>
<glyph name="arrowdown" format="1">
  <advance width="366"/>
  <unicode hex="2193"/>
  <outline>
    <contour>
      <point x="294" y="140" type="curve" smooth="yes"/>
      <point x="183" y="-15" type="line"/>
      <point x="72" y="140" type="line" smooth="yes"/>
      <point x="68" y="145"/>
      <point x="73" y="151"/>
      <point x="77" y="149" type="curve"/>
      <point x="162" y="80" type="line"/>
      <point x="162" y="700" type="line"/>
      <point x="204" y="700" type="line"/>
      <point x="204" y="80" type="line"/>
      <point x="289" y="149" type="line"/>
      <point x="293" y="151"/>
      <point x="298" y="145"/>
    </contour>
  </outline>
</glyph>
<glyph name="arrowboth" format="1">
  <advance width="744"/>
  <unicode hex="2194"/>
  <outline>
    <contour>
      <point x="719" y="347" type="line"/>
      <point x="564" y="236" type="line"/>
      <point x="560" y="232"/>
      <point x="553" y="237"/>
      <point x="555" y="241" type="curve"/>
      <point x="625" y="326" type="line"/>
      <point x="119" y="326" type="line"/>
      <point x="189" y="241" type="line"/>
      <point x="191" y="237"/>
      <point x="185" y="232"/>
      <point x="180" y="236" type="curve" smooth="yes"/>
      <point x="25" y="347" type="line"/>
      <point x="180" y="459" type="line" smooth="yes"/>
      <point x="185" y="462"/>
      <point x="191" y="457"/>
      <point x="189" y="453" type="curve"/>
      <point x="119" y="368" type="line"/>
      <point x="625" y="368" type="line"/>
      <point x="555" y="453" type="line"/>
      <point x="553" y="457"/>
      <point x="560" y="462"/>
      <point x="564" y="459" type="curve" smooth="yes"/>
    </contour>
  </outline>
</glyph>
<glyph name="radical" format="1">
  <advance width="554"/>
  <unicode hex="221A"/>
  <outline>
    <contour>
      <point x="582" y="700" type="line"/>
      <point x="194" y="0" type="line"/>
      <point x="152" y="0" type="line"/>
      <point x="56" y="340" type="line"/>
      <point x="99" y="340" type="line"/>
      <point x="179" y="52" type="line"/>
      <point x="533" y="700" type="line"/>
    </contour>
  </outline>
</glyph>
<glyph name="fi" format="1">
  <advance width="567"/>
  <unicode hex="FB01"/>
  <outline>
    <contour>
      <point x="555" y="681" type="curve" smooth="yes"/>
      <point x="555" y="662"/>
      <point x="540" y="647"/>
      <point x="523" y="647" type="curve" smooth="yes"/>
      <point x="502" y="647"/>
      <point x="488" y="662"/>
      <point x="488" y="681" type="curve" smooth="yes"/>
      <point x="488" y="700"/>
      <point x="502" y="715"/>
      <point x="523" y="715" type="curve" smooth="yes"/>
      <point x="540" y="715"/>
      <point x="555" y="700"/>
    </contour>
    <contour>
      <point x="375" y="711" type="curve"/>
      <point x="368" y="672" type="line"/>
      <point x="350" y="679"/>
      <point x="323" y="685"/>
      <point x="303" y="685" type="curve" smooth="yes"/>
      <point x="261" y="685"/>
      <point x="234" y="667"/>
      <point x="223" y="603" type="curve" smooth="yes"/>
      <point x="210" y="525" type="line"/>
      <point x="329" y="525" type="line"/>
      <point x="323" y="488" type="line"/>
      <point x="203" y="488" type="line"/>
      <point x="117" y="0" type="line"/>
      <point x="72" y="0" type="line"/>
      <point x="158" y="488" type="line"/>
      <point x="80" y="488" type="line"/>
      <point x="87" y="525" type="line"/>
      <point x="165" y="525" type="line"/>
      <point x="179" y="605" type="line" smooth="yes"/>
      <point x="195" y="699"/>
      <point x="241" y="725"/>
      <point x="303" y="725" type="curve" smooth="yes"/>
      <point x="337" y="725"/>
      <point x="360" y="717"/>
    </contour>
    <contour>
      <point x="517" y="525" type="line"/>
      <point x="424" y="0" type="line"/>
      <point x="379" y="0" type="line"/>
      <point x="472" y="525" type="line"/>
    </contour>
  </outline>
</glyph>
<glyph name="fl" format="1">
  <advance width="567"/>
  <unicode hex="FB02"/>
  <outline>
    <contour>
      <point x="553" y="729" type="line"/>
      <point x="424" y="0" type="line"/>
      <point x="379" y="0" type="line"/>
      <point x="504" y="704" type="line"/>
    </contour>
    <contour>
      <point x="375" y="711" type="curve"/>
      <point x="368" y="672" type="line"/>
      <point x="350" y="679"/>
      <point x="323" y="685"/>
      <point x="303" y="685" type="curve" smooth="yes"/>
      <point x="261" y="685"/>
      <point x="234" y="667"/>
      <point x="223" y="603" type="curve" smooth="yes"/>
      <point x="210" y="525" type="line"/>
      <point x="329" y="525" type="line"/>
      <point x="323" y="488" type="line"/>
      <point x="203" y="488" type="line"/>
      <point x="117" y="0" type="line"/>
      <point x="72" y="0" type="line"/>
      <point x="158" y="488" type="line"/>
      <point x="80" y="488" type="line"/>
      <point x="87" y="525" type="line"/>
      <point x="165" y="525" type="line"/>
      <point x="179" y="605" type="line" smooth="yes"/>
      <point x="195" y="699"/>
      <point x="241" y="725"/>
      <point x="303" y="725" type="curve" smooth="yes"/>
      <point x="337" y="725"/>
      <point x="360" y="717"/>
    </contour>
  </outline>
</glyph>
<glyph name="a.salt" format="1">
  <advance width="549"/>
  <outline>
    <contour>
      <point x="39" y="189" type="curve" smooth="yes"/>
      <point x="39" y="374"/>
      <point x="125" y="537"/>
      <point x="280" y="537" type="curve" smooth="yes"/>
      <point x="346" y="537"/>
      <point x="404" y="503"/>
      <point x="441" y="443" type="curve"/>
      <point x="455" y="525" type="line"/>
      <point x="500" y="525" type="line"/>
      <point x="407" y="1" type="line"/>
      <point x="363" y="1" type="line"/>
      <point x="376" y="75" type="line"/>
      <point x="338" y="34"/>
      <point x="278" y="-9"/>
      <point x="208" y="-9" type="curve" smooth="yes"/>
      <point x="110" y="-9"/>
      <point x="39" y="57"/>
    </contour>
    <contour>
      <point x="83" y="191" type="curve" smooth="yes"/>
      <point x="83" y="88"/>
      <point x="132" y="30"/>
      <point x="220" y="30" type="curve" smooth="yes"/>
      <point x="281" y="30"/>
      <point x="334" y="66"/>
      <point x="384" y="122" type="curve"/>
      <point x="433" y="397" type="line"/>
      <point x="400" y="460"/>
      <point x="348" y="498"/>
      <point x="278" y="498" type="curve" smooth="yes"/>
      <point x="159" y="498"/>
      <point x="83" y="363"/>
    </contour>
  </outline>
</glyph>
<glyph name="bullet" format="1">
  <advance width="322"/>
  <outline>
    <contour>
      <point x="248" y="366" type="curve" smooth="yes"/>
      <point x="248" y="324"/>
      <point x="214" y="289"/>
      <point x="172" y="289" type="curve" smooth="yes"/>
      <point x="129" y="289"/>
      <point x="95" y="324"/>
      <point x="95" y="366" type="curve" smooth="yes"/>
      <point x="95" y="408"/>
      <point x="129" y="444"/>
      <point x="172" y="444" type="curve" smooth="yes"/>
      <point x="214" y="444"/>
      <point x="248" y="408"/>
    </contour>
  </outline>
</glyph>
<glyph name="macron" format="1">
  <advance width="500"/>
  <outline>
    <contour>
      <point x="449" y="669" type="line"/>
      <point x="442" y="628" type="line"/>
      <point x="170" y="628" type="line"/>
      <point x="177" y="669" type="line"/>
    </contour>
  </outline>
</glyph>
<glyph name="registered" format="1">
  <advance width="836"/>
  <outline>
    <contour>
      <point x="790" y="350" type="curve" smooth="yes"/>
      <point x="790" y="138"/>
      <point x="636" y="-11"/>
      <point x="429" y="-11" type="curve" smooth="yes"/>
      <point x="222" y="-11"/>
      <point x="68" y="138"/>
      <point x="68" y="350" type="curve" smooth="yes"/>
      <point x="68" y="562"/>
      <point x="222" y="711"/>
      <point x="429" y="711" type="curve" smooth="yes"/>
      <point x="636" y="711"/>
      <point x="790" y="562"/>
    </contour>
    <contour>
      <point x="760" y="350" type="curve" smooth="yes"/>
      <point x="760" y="545"/>
      <point x="619" y="683"/>
      <point x="429" y="683" type="curve" smooth="yes"/>
      <point x="239" y="683"/>
      <point x="98" y="545"/>
      <point x="98" y="350" type="curve" smooth="yes"/>
      <point x="98" y="155"/>
      <point x="239" y="17"/>
      <point x="429" y="17" type="curve" smooth="yes"/>
      <point x="619" y="17"/>
      <point x="760" y="155"/>
    </contour>
    <contour>
      <point x="579" y="448" type="curve" smooth="yes"/>
      <point x="579" y="384"/>
      <point x="542" y="346"/>
      <point x="481" y="335" type="curve"/>
      <point x="575" y="152" type="line"/>
      <point x="538" y="152" type="line"/>
      <point x="445" y="332" type="line"/>
      <point x="441" y="332"/>
      <point x="435" y="331"/>
      <point x="429" y="331" type="curve" smooth="yes"/>
      <point x="339" y="331" type="line"/>
      <point x="339" y="152" type="line"/>
      <point x="308" y="152" type="line"/>
      <point x="308" y="560" type="line"/>
      <point x="445" y="560" type="line" smooth="yes"/>
      <point x="523" y="560"/>
      <point x="579" y="529"/>
    </contour>
    <contour>
      <point x="547" y="448" type="curve" smooth="yes"/>
      <point x="547" y="509"/>
      <point x="508" y="531"/>
      <point x="444" y="531" type="curve" smooth="yes"/>
      <point x="339" y="531" type="line"/>
      <point x="339" y="361" type="line"/>
      <point x="437" y="361" type="line" smooth="yes"/>
      <point x="509" y="361"/>
      <point x="547" y="387"/>
    </contour>
  </outline>
</glyph>
